<svg xmlns="http://www.w3.org/2000/svg" viewBox="0 0 800 800" width="800" height="800" preserveAspectRatio="xMidYMid slice"><defs><filter id="blur" x="-50%" y="-50%" width="200%" height="200%"><feGaussianBlur stdDeviation="14"/></filter><filter id="soft"><feGaussianBlur stdDeviation="3"/></filter><filter id="shadow" x="-20%" y="-20%" width="140%" height="160%"><feDropShadow dx="0" dy="10" stdDeviation="12" flood-color="#3a2219" flood-opacity=".28"/></filter><linearGradient id="bg" x1="0" y1="0" x2="0" y2="1"><stop offset="0" stop-color="#f2fbf8"/><stop offset="1" stop-color="#cfeee3"/></linearGradient><linearGradient id="cakeW" x1="0" y1="0" x2="1" y2="0"><stop offset="0" stop-color="#e2d3c3"/><stop offset="0.35" stop-color="#fdf7ef"/><stop offset="0.6" stop-color="#fdf7ef"/><stop offset="1" stop-color="#e2d3c3"/></linearGradient><linearGradient id="cakeP" x1="0" y1="0" x2="1" y2="0"><stop offset="0" stop-color="#e5b9bd"/><stop offset="0.35" stop-color="#fbe3e4"/><stop offset="0.6" stop-color="#fbe3e4"/><stop offset="1" stop-color="#e5b9bd"/></linearGradient><linearGradient id="cakeB" x1="0" y1="0" x2="1" y2="0"><stop offset="0" stop-color="#9ccbdd"/><stop offset="0.35" stop-color="#d5eef7"/><stop offset="0.6" stop-color="#d5eef7"/><stop offset="1" stop-color="#9ccbdd"/></linearGradient><linearGradient id="cakeC" x1="0" y1="0" x2="1" y2="0"><stop offset="0" stop-color="#3d2014"/><stop offset="0.35" stop-color="#6d3f2a"/><stop offset="0.6" stop-color="#6d3f2a"/><stop offset="1" stop-color="#3d2014"/></linearGradient><linearGradient id="cakeS" x1="0" y1="0" x2="1" y2="0"><stop offset="0" stop-color="#e6d6c4"/><stop offset="0.35" stop-color="#fffaf2"/><stop offset="0.6" stop-color="#fffaf2"/><stop offset="1" stop-color="#e6d6c4"/></linearGradient></defs><rect width="800" height="800" fill="url(#bg)"/><g filter="url(#blur)"><circle cx="635" cy="658" r="39" fill="#d9f3ea" opacity="0.31"/><circle cx="116" cy="469" r="59" fill="#d9f3ea" opacity="0.40"/><circle cx="18" cy="391" r="28" fill="#d9f3ea" opacity="0.57"/><circle cx="431" cy="75" r="43" fill="#d9f3ea" opacity="0.50"/><circle cx="488" cy="70" r="37" fill="#ffffff" opacity="0.41"/><circle cx="328" cy="200" r="48" fill="#ffffff" opacity="0.51"/><circle cx="637" cy="78" r="22" fill="#ffffff" opacity="0.55"/><circle cx="730" cy="389" r="53" fill="#ffffff" opacity="0.45"/><circle cx="516" cy="558" r="52" fill="#ffffff" opacity="0.49"/><circle cx="196" cy="344" r="34" fill="#ffffff" opacity="0.33"/><circle cx="704" cy="420" r="25" fill="#d9f3ea" opacity="0.39"/><circle cx="157" cy="387" r="26" fill="#ffffff" opacity="0.55"/><circle cx="701" cy="418" r="28" fill="#ffffff" opacity="0.31"/><circle cx="266" cy="724" r="45" fill="#d9f3ea" opacity="0.41"/></g><g filter="url(#shadow)"><path d="M94 530 L246 530 L227 620 L113 620 Z" fill="#f4a6c0"/><line x1="105" y1="530" x2="122" y2="620" stroke="#e58aab" stroke-width="3"/><line x1="127" y1="530" x2="138" y2="620" stroke="#e58aab" stroke-width="3"/><line x1="149" y1="530" x2="154" y2="620" stroke="#e58aab" stroke-width="3"/><line x1="171" y1="530" x2="171" y2="620" stroke="#e58aab" stroke-width="3"/><line x1="193" y1="530" x2="187" y2="620" stroke="#e58aab" stroke-width="3"/><line x1="215" y1="530" x2="203" y2="620" stroke="#e58aab" stroke-width="3"/><line x1="236" y1="530" x2="220" y2="620" stroke="#e58aab" stroke-width="3"/><ellipse cx="170" cy="517" rx="87" ry="28" fill="#fff6ec" stroke="#00000012" stroke-width="3"/><ellipse cx="170" cy="479" rx="68" ry="28" fill="#fff6ec" stroke="#00000012" stroke-width="3"/><ellipse cx="170" cy="449" rx="48" ry="28" fill="#fff6ec" stroke="#00000012" stroke-width="3"/><ellipse cx="170" cy="426" rx="25" ry="28" fill="#fff6ec" stroke="#00000012" stroke-width="3"/><rect x="169.4" y="458.5" width="3.7" height="1.1" rx="0.5" fill="#ff9a5c" transform="rotate(68 169.4 458.5)"/><rect x="131.4" y="462.1" width="3.7" height="1.1" rx="0.5" fill="#7fd18b" transform="rotate(78 131.4 462.1)"/><rect x="204.9" y="416.0" width="3.7" height="1.1" rx="0.5" fill="#7fd18b" transform="rotate(48 204.9 416.0)"/><rect x="210.1" y="471.9" width="3.7" height="1.1" rx="0.5" fill="#f06a8a" transform="rotate(162 210.1 471.9)"/><rect x="107.6" y="418.2" width="3.7" height="1.1" rx="0.5" fill="#b58be0" transform="rotate(2 107.6 418.2)"/><rect x="220.7" y="481.0" width="3.7" height="1.1" rx="0.5" fill="#7fd18b" transform="rotate(131 220.7 481.0)"/><rect x="173.7" y="488.3" width="3.7" height="1.1" rx="0.5" fill="#7fd18b" transform="rotate(100 173.7 488.3)"/><rect x="149.5" y="480.1" width="3.7" height="1.1" rx="0.5" fill="#7fd18b" transform="rotate(171 149.5 480.1)"/><rect x="226.7" y="455.3" width="3.7" height="1.1" rx="0.5" fill="#b58be0" transform="rotate(166 226.7 455.3)"/><rect x="116.8" y="475.5" width="3.7" height="1.1" rx="0.5" fill="#ff9a5c" transform="rotate(155 116.8 475.5)"/><rect x="119.6" y="447.4" width="3.7" height="1.1" rx="0.5" fill="#ff9a5c" transform="rotate(175 119.6 447.4)"/><rect x="170.1" y="507.6" width="3.7" height="1.1" rx="0.5" fill="#b58be0" transform="rotate(149 170.1 507.6)"/><rect x="192.7" y="444.6" width="3.7" height="1.1" rx="0.5" fill="#b58be0" transform="rotate(175 192.7 444.6)"/><rect x="169.9" y="505.1" width="3.7" height="1.1" rx="0.5" fill="#7fd18b" transform="rotate(106 169.9 505.1)"/><rect x="108.1" y="438.8" width="3.7" height="1.1" rx="0.5" fill="#7fd18b" transform="rotate(75 108.1 438.8)"/><rect x="126.5" y="467.9" width="3.7" height="1.1" rx="0.5" fill="#ff9a5c" transform="rotate(140 126.5 467.9)"/><circle cx="170" cy="400" r="13" fill="#d6304f"/></g><g filter="url(#shadow)"><path d="M554 530 L706 530 L687 620 L573 620 Z" fill="#f4a6c0"/><line x1="565" y1="530" x2="582" y2="620" stroke="#e58aab" stroke-width="3"/><line x1="587" y1="530" x2="598" y2="620" stroke="#e58aab" stroke-width="3"/><line x1="609" y1="530" x2="614" y2="620" stroke="#e58aab" stroke-width="3"/><line x1="631" y1="530" x2="631" y2="620" stroke="#e58aab" stroke-width="3"/><line x1="653" y1="530" x2="647" y2="620" stroke="#e58aab" stroke-width="3"/><line x1="675" y1="530" x2="663" y2="620" stroke="#e58aab" stroke-width="3"/><line x1="696" y1="530" x2="680" y2="620" stroke="#e58aab" stroke-width="3"/><ellipse cx="630" cy="517" rx="87" ry="28" fill="#f7a8c4" stroke="#00000012" stroke-width="3"/><ellipse cx="630" cy="479" rx="68" ry="28" fill="#f7a8c4" stroke="#00000012" stroke-width="3"/><ellipse cx="630" cy="449" rx="48" ry="28" fill="#f7a8c4" stroke="#00000012" stroke-width="3"/><ellipse cx="630" cy="426" rx="25" ry="28" fill="#f7a8c4" stroke="#00000012" stroke-width="3"/><rect x="661.7" y="424.0" width="3.7" height="1.1" rx="0.5" fill="#ff9a5c" transform="rotate(92 661.7 424.0)"/><rect x="667.0" y="465.2" width="3.7" height="1.1" rx="0.5" fill="#7fd18b" transform="rotate(67 667.0 465.2)"/><rect x="661.0" y="460.3" width="3.7" height="1.1" rx="0.5" fill="#f7c948" transform="rotate(127 661.0 460.3)"/><rect x="694.3" y="472.1" width="3.7" height="1.1" rx="0.5" fill="#7fd18b" transform="rotate(116 694.3 472.1)"/><rect x="585.9" y="437.3" width="3.7" height="1.1" rx="0.5" fill="#f06a8a" transform="rotate(139 585.9 437.3)"/><rect x="635.3" y="497.5" width="3.7" height="1.1" rx="0.5" fill="#5bb7e5" transform="rotate(73 635.3 497.5)"/><rect x="609.2" y="496.3" width="3.7" height="1.1" rx="0.5" fill="#f7c948" transform="rotate(83 609.2 496.3)"/><rect x="599.3" y="467.8" width="3.7" height="1.1" rx="0.5" fill="#ff9a5c" transform="rotate(1 599.3 467.8)"/><rect x="667.7" y="493.7" width="3.7" height="1.1" rx="0.5" fill="#ff9a5c" transform="rotate(92 667.7 493.7)"/><rect x="580.7" y="489.6" width="3.7" height="1.1" rx="0.5" fill="#5bb7e5" transform="rotate(77 580.7 489.6)"/><rect x="571.0" y="498.4" width="3.7" height="1.1" rx="0.5" fill="#b58be0" transform="rotate(100 571.0 498.4)"/><rect x="688.7" y="455.0" width="3.7" height="1.1" rx="0.5" fill="#f7c948" transform="rotate(75 688.7 455.0)"/><rect x="563.7" y="467.1" width="3.7" height="1.1" rx="0.5" fill="#b58be0" transform="rotate(60 563.7 467.1)"/><rect x="643.3" y="492.2" width="3.7" height="1.1" rx="0.5" fill="#ff9a5c" transform="rotate(32 643.3 492.2)"/><rect x="641.2" y="497.5" width="3.7" height="1.1" rx="0.5" fill="#b58be0" transform="rotate(143 641.2 497.5)"/><rect x="672.1" y="440.0" width="3.7" height="1.1" rx="0.5" fill="#ff9a5c" transform="rotate(13 672.1 440.0)"/><circle cx="630" cy="400" r="13" fill="#d6304f"/></g><g filter="url(#shadow)"><path d="M312 576 L488 576 L466 680 L334 680 Z" fill="#f4a6c0"/><line x1="325" y1="576" x2="344" y2="680" stroke="#e58aab" stroke-width="3"/><line x1="350" y1="576" x2="363" y2="680" stroke="#e58aab" stroke-width="3"/><line x1="376" y1="576" x2="382" y2="680" stroke="#e58aab" stroke-width="3"/><line x1="401" y1="576" x2="401" y2="680" stroke="#e58aab" stroke-width="3"/><line x1="426" y1="576" x2="420" y2="680" stroke="#e58aab" stroke-width="3"/><line x1="452" y1="576" x2="439" y2="680" stroke="#e58aab" stroke-width="3"/><line x1="477" y1="576" x2="458" y2="680" stroke="#e58aab" stroke-width="3"/><ellipse cx="400" cy="561" rx="101" ry="33" fill="#fbd3e0" stroke="#00000012" stroke-width="3"/><ellipse cx="400" cy="517" rx="79" ry="33" fill="#fbd3e0" stroke="#00000012" stroke-width="3"/><ellipse cx="400" cy="482" rx="55" ry="33" fill="#fbd3e0" stroke="#00000012" stroke-width="3"/><ellipse cx="400" cy="456" rx="29" ry="33" fill="#fbd3e0" stroke="#00000012" stroke-width="3"/><rect x="456.7" y="493.3" width="4.3" height="1.2" rx="0.6" fill="#f7c948" transform="rotate(45 456.7 493.3)"/><rect x="339.9" y="512.2" width="4.3" height="1.2" rx="0.6" fill="#f7c948" transform="rotate(52 339.9 512.2)"/><rect x="348.8" y="471.6" width="4.3" height="1.2" rx="0.6" fill="#5bb7e5" transform="rotate(118 348.8 471.6)"/><rect x="422.8" y="475.9" width="4.3" height="1.2" rx="0.6" fill="#ff9a5c" transform="rotate(58 422.8 475.9)"/><rect x="396.0" y="446.1" width="4.3" height="1.2" rx="0.6" fill="#7fd18b" transform="rotate(62 396.0 446.1)"/><rect x="445.6" y="471.9" width="4.3" height="1.2" rx="0.6" fill="#f7c948" transform="rotate(162 445.6 471.9)"/><rect x="401.6" y="466.5" width="4.3" height="1.2" rx="0.6" fill="#b58be0" transform="rotate(78 401.6 466.5)"/><rect x="473.2" y="468.3" width="4.3" height="1.2" rx="0.6" fill="#7fd18b" transform="rotate(26 473.2 468.3)"/><rect x="433.7" y="461.1" width="4.3" height="1.2" rx="0.6" fill="#ff9a5c" transform="rotate(91 433.7 461.1)"/><rect x="388.7" y="535.0" width="4.3" height="1.2" rx="0.6" fill="#ff9a5c" transform="rotate(144 388.7 535.0)"/><rect x="402.6" y="468.1" width="4.3" height="1.2" rx="0.6" fill="#ff9a5c" transform="rotate(6 402.6 468.1)"/><rect x="426.9" y="531.9" width="4.3" height="1.2" rx="0.6" fill="#ff9a5c" transform="rotate(114 426.9 531.9)"/><rect x="332.1" y="476.3" width="4.3" height="1.2" rx="0.6" fill="#5bb7e5" transform="rotate(158 332.1 476.3)"/><rect x="370.2" y="537.9" width="4.3" height="1.2" rx="0.6" fill="#f7c948" transform="rotate(165 370.2 537.9)"/><rect x="368.9" y="460.9" width="4.3" height="1.2" rx="0.6" fill="#b58be0" transform="rotate(45 368.9 460.9)"/><rect x="324.3" y="540.2" width="4.3" height="1.2" rx="0.6" fill="#f06a8a" transform="rotate(106 324.3 540.2)"/><circle cx="400" cy="425" r="15" fill="#d6304f"/></g></svg>