<svg xmlns="http://www.w3.org/2000/svg" viewBox="0 0 800 800" width="800" height="800" preserveAspectRatio="xMidYMid slice"><defs><filter id="blur" x="-50%" y="-50%" width="200%" height="200%"><feGaussianBlur stdDeviation="14"/></filter><filter id="soft"><feGaussianBlur stdDeviation="3"/></filter><filter id="shadow" x="-20%" y="-20%" width="140%" height="160%"><feDropShadow dx="0" dy="10" stdDeviation="12" flood-color="#3a2219" flood-opacity=".28"/></filter><linearGradient id="bg" x1="0" y1="0" x2="0" y2="1"><stop offset="0" stop-color="#fff8f1"/><stop offset="1" stop-color="#f6e3d4"/></linearGradient><linearGradient id="cakeW" x1="0" y1="0" x2="1" y2="0"><stop offset="0" stop-color="#e2d3c3"/><stop offset="0.35" stop-color="#fdf7ef"/><stop offset="0.6" stop-color="#fdf7ef"/><stop offset="1" stop-color="#e2d3c3"/></linearGradient><linearGradient id="cakeP" x1="0" y1="0" x2="1" y2="0"><stop offset="0" stop-color="#e5b9bd"/><stop offset="0.35" stop-color="#fbe3e4"/><stop offset="0.6" stop-color="#fbe3e4"/><stop offset="1" stop-color="#e5b9bd"/></linearGradient><linearGradient id="cakeB" x1="0" y1="0" x2="1" y2="0"><stop offset="0" stop-color="#9ccbdd"/><stop offset="0.35" stop-color="#d5eef7"/><stop offset="0.6" stop-color="#d5eef7"/><stop offset="1" stop-color="#9ccbdd"/></linearGradient><linearGradient id="cakeC" x1="0" y1="0" x2="1" y2="0"><stop offset="0" stop-color="#3d2014"/><stop offset="0.35" stop-color="#6d3f2a"/><stop offset="0.6" stop-color="#6d3f2a"/><stop offset="1" stop-color="#3d2014"/></linearGradient><linearGradient id="cakeS" x1="0" y1="0" x2="1" y2="0"><stop offset="0" stop-color="#e6d6c4"/><stop offset="0.35" stop-color="#fffaf2"/><stop offset="0.6" stop-color="#fffaf2"/><stop offset="1" stop-color="#e6d6c4"/></linearGradient></defs><rect width="800" height="800" fill="url(#bg)"/><g filter="url(#blur)"><circle cx="457" cy="343" r="43" fill="#ffffff" opacity="0.44"/><circle cx="393" cy="222" r="52" fill="#ffffff" opacity="0.46"/><circle cx="262" cy="200" r="58" fill="#ffd9e6" opacity="0.31"/><circle cx="688" cy="483" r="35" fill="#ffd9e6" opacity="0.55"/><circle cx="210" cy="140" r="32" fill="#ffd9e6" opacity="0.34"/><circle cx="614" cy="786" r="59" fill="#ffd9e6" opacity="0.31"/><circle cx="3" cy="107" r="58" fill="#ffd9e6" opacity="0.46"/><circle cx="618" cy="192" r="47" fill="#ffd9e6" opacity="0.43"/><circle cx="52" cy="468" r="54" fill="#ffffff" opacity="0.55"/><circle cx="776" cy="191" r="21" fill="#ffd9e6" opacity="0.55"/><circle cx="526" cy="427" r="54" fill="#ffffff" opacity="0.42"/><circle cx="756" cy="730" r="26" fill="#ffffff" opacity="0.43"/><circle cx="786" cy="153" r="34" fill="#ffd9e6" opacity="0.43"/><circle cx="545" cy="115" r="41" fill="#ffffff" opacity="0.38"/></g><rect x="0" y="700" width="800" height="100" fill="#f6ebe2"/><rect x="0" y="700" width="800" height="6" fill="#fff" opacity=".6"/><g filter="url(#shadow)"><rect x="377" y="650" width="46" height="92" fill="#b9aea6"/><ellipse cx="400" cy="742" rx="92" ry="16" fill="#b9aea6"/><ellipse cx="400" cy="650" rx="198" ry="23" fill="#efe9e4"/><ellipse cx="400" cy="657" rx="198" ry="20" fill="none" stroke="#b9aea6" stroke-width="2"/><rect x="235.0" y="480.6" width="330.0" height="165.0" fill="url(#cakeW)"/><ellipse cx="400.0" cy="645.6" rx="165.0" ry="29.7" fill="url(#cakeW)"/><ellipse cx="400.0" cy="480.6" rx="165.0" ry="29.7" fill="#fffaf4"/><rect x="279.0" y="337.6" width="242.0" height="143.0" fill="url(#cakeW)"/><ellipse cx="400.0" cy="480.6" rx="121.0" ry="21.8" fill="url(#cakeW)"/><ellipse cx="400.0" cy="337.6" rx="121.0" ry="21.8" fill="#fffaf4"/><rect x="317.5" y="216.6" width="165.0" height="121.0" fill="url(#cakeW)"/><ellipse cx="400.0" cy="337.6" rx="82.5" ry="14.8" fill="url(#cakeW)"/><ellipse cx="400.0" cy="216.6" rx="82.5" ry="14.8" fill="#fffaf4"/><ellipse cx="492.4" cy="186.9" rx="23.9" ry="10.0" fill="#6f8a5e" transform="rotate(1 492.4 186.9)"/><line x1="471.0" y1="186.3" x2="513.9" y2="187.4" stroke="#4f6843" stroke-width="1.2" opacity=".6"/><ellipse cx="467.0" cy="215.4" rx="23.9" ry="10.0" fill="#6f8a5e" transform="rotate(109 467.0 215.4)"/><line x1="474.0" y1="195.1" x2="460.0" y2="235.7" stroke="#4f6843" stroke-width="1.2" opacity=".6"/><ellipse cx="466.2" cy="215.5" rx="19.7" ry="8.3" fill="#6f8a5e" transform="rotate(113 466.2 215.5)"/><line x1="473.2" y1="199.2" x2="459.2" y2="231.8" stroke="#4f6843" stroke-width="1.0" opacity=".6"/><ellipse cx="474.2" cy="203.4" rx="19.7" ry="8.3" fill="#6f8a5e" transform="rotate(23 474.2 203.4)"/><line x1="457.9" y1="196.4" x2="490.5" y2="210.4" stroke="#4f6843" stroke-width="1.0" opacity=".6"/><ellipse cx="418.7" cy="212.8" rx="16.9" ry="7.1" fill="#6f8a5e" transform="rotate(56 418.7 212.8)"/><line x1="410.3" y1="200.1" x2="427.1" y2="225.4" stroke="#4f6843" stroke-width="0.8" opacity=".6"/><ellipse cx="405.2" cy="203.0" rx="16.9" ry="7.1" fill="#6f8a5e" transform="rotate(13 405.2 203.0)"/><line x1="390.4" y1="199.6" x2="420.0" y2="206.5" stroke="#4f6843" stroke-width="0.8" opacity=".6"/><ellipse cx="542.3" cy="190.3" rx="27.8" ry="11.7" fill="#6f8a5e" transform="rotate(237 542.3 190.3)"/><line x1="556.0" y1="211.2" x2="528.7" y2="169.4" stroke="#4f6843" stroke-width="1.4" opacity=".6"/><ellipse cx="544.6" cy="191.7" rx="27.8" ry="11.7" fill="#6f8a5e" transform="rotate(54 544.6 191.7)"/><line x1="529.9" y1="171.5" x2="559.3" y2="211.9" stroke="#4f6843" stroke-width="1.4" opacity=".6"/><ellipse cx="461.9" cy="196.3" rx="27.3" ry="11.5" fill="#6f8a5e" transform="rotate(216 461.9 196.3)"/><line x1="481.7" y1="210.9" x2="442.2" y2="181.7" stroke="#4f6843" stroke-width="1.4" opacity=".6"/><ellipse cx="434.4" cy="211.0" rx="27.3" ry="11.5" fill="#6f8a5e" transform="rotate(35 434.4 211.0)"/><line x1="414.2" y1="196.9" x2="454.6" y2="225.0" stroke="#4f6843" stroke-width="1.4" opacity=".6"/><ellipse cx="452.8" cy="226.9" rx="25.0" ry="10.5" fill="#6f8a5e" transform="rotate(341 452.8 226.9)"/><line x1="431.4" y1="234.2" x2="474.1" y2="219.6" stroke="#4f6843" stroke-width="1.3" opacity=".6"/><ellipse cx="467.6" cy="213.8" rx="25.0" ry="10.5" fill="#6f8a5e" transform="rotate(88 467.6 213.8)"/><line x1="467.0" y1="191.3" x2="468.2" y2="236.3" stroke="#4f6843" stroke-width="1.3" opacity=".6"/><ellipse cx="461.7" cy="230.0" rx="19.2" ry="8.0" fill="#6f8a5e" transform="rotate(64 461.7 230.0)"/><line x1="454.2" y1="214.5" x2="469.2" y2="245.5" stroke="#4f6843" stroke-width="1.0" opacity=".6"/><ellipse cx="455.1" cy="225.9" rx="19.2" ry="8.0" fill="#6f8a5e" transform="rotate(59 455.1 225.9)"/><line x1="446.3" y1="211.0" x2="463.9" y2="240.7" stroke="#4f6843" stroke-width="1.0" opacity=".6"/><circle cx="542.5" cy="178.5" r="30.8" fill="#f8ecdc"/><circle cx="559.5" cy="178.5" r="15.4" fill="#f8ecdc" stroke="#cdb38f" stroke-width="1.2" opacity=".95"/><circle cx="553.1" cy="191.8" r="15.4" fill="#f8ecdc" stroke="#cdb38f" stroke-width="1.2" opacity=".95"/><circle cx="538.8" cy="195.1" r="15.4" fill="#f8ecdc" stroke="#cdb38f" stroke-width="1.2" opacity=".95"/><circle cx="527.3" cy="185.9" r="15.4" fill="#f8ecdc" stroke="#cdb38f" stroke-width="1.2" opacity=".95"/><circle cx="527.3" cy="171.2" r="15.4" fill="#f8ecdc" stroke="#cdb38f" stroke-width="1.2" opacity=".95"/><circle cx="538.8" cy="162.0" r="15.4" fill="#f8ecdc" stroke="#cdb38f" stroke-width="1.2" opacity=".95"/><circle cx="553.1" cy="165.3" r="15.4" fill="#f8ecdc" stroke="#cdb38f" stroke-width="1.2" opacity=".95"/><circle cx="542.5" cy="178.5" r="19.1" fill="#fffaf2" stroke="#cdb38f" stroke-width="1.1" stroke-opacity=".6"/><circle cx="544.1" cy="177.3" r="13.9" fill="#f8ecdc" stroke="#cdb38f" stroke-width="1.1" stroke-opacity=".6"/><circle cx="545.6" cy="176.1" r="9.3" fill="#fffaf2" stroke="#cdb38f" stroke-width="1.1" stroke-opacity=".6"/><circle cx="547.2" cy="174.8" r="4.9" fill="#cdb38f" stroke="#cdb38f" stroke-width="1.1" stroke-opacity=".6"/><path d="M534.8 178.5 q7.7 -10.8 15.4 0" fill="none" stroke="#cdb38f" stroke-width="1.5" opacity=".7"/><circle cx="457.9" cy="200.9" r="30.3" fill="#ec8d73"/><circle cx="474.6" cy="200.9" r="15.2" fill="#ec8d73" stroke="#b8543d" stroke-width="1.2" opacity=".95"/><circle cx="468.3" cy="214.0" r="15.2" fill="#ec8d73" stroke="#b8543d" stroke-width="1.2" opacity=".95"/><circle cx="454.2" cy="217.2" r="15.2" fill="#ec8d73" stroke="#b8543d" stroke-width="1.2" opacity=".95"/><circle cx="442.8" cy="208.2" r="15.2" fill="#ec8d73" stroke="#b8543d" stroke-width="1.2" opacity=".95"/><circle cx="442.8" cy="193.7" r="15.2" fill="#ec8d73" stroke="#b8543d" stroke-width="1.2" opacity=".95"/><circle cx="454.2" cy="184.7" r="15.2" fill="#ec8d73" stroke="#b8543d" stroke-width="1.2" opacity=".95"/><circle cx="468.3" cy="187.9" r="15.2" fill="#ec8d73" stroke="#b8543d" stroke-width="1.2" opacity=".95"/><circle cx="457.9" cy="200.9" r="18.8" fill="#f7b8a4" stroke="#b8543d" stroke-width="1.1" stroke-opacity=".6"/><circle cx="459.4" cy="199.7" r="13.7" fill="#ec8d73" stroke="#b8543d" stroke-width="1.1" stroke-opacity=".6"/><circle cx="460.9" cy="198.5" r="9.1" fill="#f7b8a4" stroke="#b8543d" stroke-width="1.1" stroke-opacity=".6"/><circle cx="462.4" cy="197.3" r="4.9" fill="#b8543d" stroke="#b8543d" stroke-width="1.1" stroke-opacity=".6"/><path d="M450.3 200.9 q7.6 -10.6 15.2 0" fill="none" stroke="#b8543d" stroke-width="1.5" opacity=".7"/><circle cx="486.4" cy="201.4" r="26.5" fill="#f5b99a"/><circle cx="501.0" cy="201.4" r="13.3" fill="#f5b99a" stroke="#cf7a55" stroke-width="1.1" opacity=".95"/><circle cx="495.5" cy="212.8" r="13.3" fill="#f5b99a" stroke="#cf7a55" stroke-width="1.1" opacity=".95"/><circle cx="483.2" cy="215.6" r="13.3" fill="#f5b99a" stroke="#cf7a55" stroke-width="1.1" opacity=".95"/><circle cx="473.3" cy="207.7" r="13.3" fill="#f5b99a" stroke="#cf7a55" stroke-width="1.1" opacity=".95"/><circle cx="473.3" cy="195.1" r="13.3" fill="#f5b99a" stroke="#cf7a55" stroke-width="1.1" opacity=".95"/><circle cx="483.2" cy="187.2" r="13.3" fill="#f5b99a" stroke="#cf7a55" stroke-width="1.1" opacity=".95"/><circle cx="495.5" cy="190.0" r="13.3" fill="#f5b99a" stroke="#cf7a55" stroke-width="1.1" opacity=".95"/><circle cx="486.4" cy="201.4" r="16.4" fill="#fbdcc8" stroke="#cf7a55" stroke-width="0.9" stroke-opacity=".6"/><circle cx="487.8" cy="200.3" r="11.9" fill="#f5b99a" stroke="#cf7a55" stroke-width="0.9" stroke-opacity=".6"/><circle cx="489.1" cy="199.3" r="8.0" fill="#fbdcc8" stroke="#cf7a55" stroke-width="0.9" stroke-opacity=".6"/><circle cx="490.4" cy="198.2" r="4.2" fill="#cf7a55" stroke="#cf7a55" stroke-width="0.9" stroke-opacity=".6"/><path d="M479.8 201.4 q6.6 -9.3 13.3 0" fill="none" stroke="#cf7a55" stroke-width="1.3" opacity=".7"/><circle cx="415.5" cy="205.0" r="18.8" fill="#f8ecdc"/><circle cx="425.9" cy="205.0" r="9.4" fill="#f8ecdc" stroke="#cdb38f" stroke-width="0.8" opacity=".95"/><circle cx="422.0" cy="213.1" r="9.4" fill="#f8ecdc" stroke="#cdb38f" stroke-width="0.8" opacity=".95"/><circle cx="413.2" cy="215.1" r="9.4" fill="#f8ecdc" stroke="#cdb38f" stroke-width="0.8" opacity=".95"/><circle cx="406.2" cy="209.5" r="9.4" fill="#f8ecdc" stroke="#cdb38f" stroke-width="0.8" opacity=".95"/><circle cx="406.2" cy="200.5" r="9.4" fill="#f8ecdc" stroke="#cdb38f" stroke-width="0.8" opacity=".95"/><circle cx="413.2" cy="194.9" r="9.4" fill="#f8ecdc" stroke="#cdb38f" stroke-width="0.8" opacity=".95"/><circle cx="422.0" cy="196.9" r="9.4" fill="#f8ecdc" stroke="#cdb38f" stroke-width="0.8" opacity=".95"/><circle cx="415.5" cy="205.0" r="11.6" fill="#fffaf2" stroke="#cdb38f" stroke-width="0.7" stroke-opacity=".6"/><circle cx="416.5" cy="204.3" r="8.4" fill="#f8ecdc" stroke="#cdb38f" stroke-width="0.7" stroke-opacity=".6"/><circle cx="417.4" cy="203.5" r="5.6" fill="#fffaf2" stroke="#cdb38f" stroke-width="0.7" stroke-opacity=".6"/><circle cx="418.4" cy="202.8" r="3.0" fill="#cdb38f" stroke="#cdb38f" stroke-width="0.7" stroke-opacity=".6"/><path d="M410.8 205.0 q4.7 -6.6 9.4 0" fill="none" stroke="#cdb38f" stroke-width="0.9" opacity=".7"/><circle cx="472.1" cy="205.1" r="21.9" fill="#f5b99a"/><circle cx="484.1" cy="205.1" r="10.9" fill="#f5b99a" stroke="#cf7a55" stroke-width="0.9" opacity=".95"/><circle cx="479.6" cy="214.5" r="10.9" fill="#f5b99a" stroke="#cf7a55" stroke-width="0.9" opacity=".95"/><circle cx="469.4" cy="216.8" r="10.9" fill="#f5b99a" stroke="#cf7a55" stroke-width="0.9" opacity=".95"/><circle cx="461.2" cy="210.3" r="10.9" fill="#f5b99a" stroke="#cf7a55" stroke-width="0.9" opacity=".95"/><circle cx="461.2" cy="199.9" r="10.9" fill="#f5b99a" stroke="#cf7a55" stroke-width="0.9" opacity=".95"/><circle cx="469.4" cy="193.4" r="10.9" fill="#f5b99a" stroke="#cf7a55" stroke-width="0.9" opacity=".95"/><circle cx="479.6" cy="195.7" r="10.9" fill="#f5b99a" stroke="#cf7a55" stroke-width="0.9" opacity=".95"/><circle cx="472.1" cy="205.1" r="13.6" fill="#fbdcc8" stroke="#cf7a55" stroke-width="0.8" stroke-opacity=".6"/><circle cx="473.2" cy="204.2" r="9.8" fill="#f5b99a" stroke="#cf7a55" stroke-width="0.8" stroke-opacity=".6"/><circle cx="474.2" cy="203.3" r="6.6" fill="#fbdcc8" stroke="#cf7a55" stroke-width="0.8" stroke-opacity=".6"/><circle cx="475.3" cy="202.5" r="3.5" fill="#cf7a55" stroke="#cf7a55" stroke-width="0.8" stroke-opacity=".6"/><path d="M466.6 205.1 q5.5 -7.7 10.9 0" fill="none" stroke="#cf7a55" stroke-width="1.1" opacity=".7"/><circle cx="471.3" cy="216.6" r="27.8" fill="#f5b99a"/><circle cx="486.6" cy="216.6" r="13.9" fill="#f5b99a" stroke="#cf7a55" stroke-width="1.1" opacity=".95"/><circle cx="480.8" cy="228.6" r="13.9" fill="#f5b99a" stroke="#cf7a55" stroke-width="1.1" opacity=".95"/><circle cx="467.9" cy="231.5" r="13.9" fill="#f5b99a" stroke="#cf7a55" stroke-width="1.1" opacity=".95"/><circle cx="457.5" cy="223.3" r="13.9" fill="#f5b99a" stroke="#cf7a55" stroke-width="1.1" opacity=".95"/><circle cx="457.5" cy="210.0" r="13.9" fill="#f5b99a" stroke="#cf7a55" stroke-width="1.1" opacity=".95"/><circle cx="467.9" cy="201.7" r="13.9" fill="#f5b99a" stroke="#cf7a55" stroke-width="1.1" opacity=".95"/><circle cx="480.8" cy="204.7" r="13.9" fill="#f5b99a" stroke="#cf7a55" stroke-width="1.1" opacity=".95"/><circle cx="471.3" cy="216.6" r="17.2" fill="#fbdcc8" stroke="#cf7a55" stroke-width="1.0" stroke-opacity=".6"/><circle cx="472.7" cy="215.5" r="12.5" fill="#f5b99a" stroke="#cf7a55" stroke-width="1.0" stroke-opacity=".6"/><circle cx="474.1" cy="214.4" r="8.3" fill="#fbdcc8" stroke="#cf7a55" stroke-width="1.0" stroke-opacity=".6"/><circle cx="475.5" cy="213.3" r="4.4" fill="#cf7a55" stroke="#cf7a55" stroke-width="1.0" stroke-opacity=".6"/><path d="M464.4 216.6 q6.9 -9.7 13.9 0" fill="none" stroke="#cf7a55" stroke-width="1.4" opacity=".7"/><circle cx="471.3" cy="227.0" r="21.3" fill="#ec8d73"/><circle cx="483.0" cy="227.0" r="10.6" fill="#ec8d73" stroke="#b8543d" stroke-width="0.9" opacity=".95"/><circle cx="478.6" cy="236.1" r="10.6" fill="#ec8d73" stroke="#b8543d" stroke-width="0.9" opacity=".95"/><circle cx="468.7" cy="238.4" r="10.6" fill="#ec8d73" stroke="#b8543d" stroke-width="0.9" opacity=".95"/><circle cx="460.8" cy="232.1" r="10.6" fill="#ec8d73" stroke="#b8543d" stroke-width="0.9" opacity=".95"/><circle cx="460.8" cy="221.9" r="10.6" fill="#ec8d73" stroke="#b8543d" stroke-width="0.9" opacity=".95"/><circle cx="468.7" cy="215.6" r="10.6" fill="#ec8d73" stroke="#b8543d" stroke-width="0.9" opacity=".95"/><circle cx="478.6" cy="217.8" r="10.6" fill="#ec8d73" stroke="#b8543d" stroke-width="0.9" opacity=".95"/><circle cx="471.3" cy="227.0" r="13.2" fill="#f7b8a4" stroke="#b8543d" stroke-width="0.7" stroke-opacity=".6"/><circle cx="472.4" cy="226.1" r="9.6" fill="#ec8d73" stroke="#b8543d" stroke-width="0.7" stroke-opacity=".6"/><circle cx="473.4" cy="225.3" r="6.4" fill="#f7b8a4" stroke="#b8543d" stroke-width="0.7" stroke-opacity=".6"/><circle cx="474.5" cy="224.4" r="3.4" fill="#b8543d" stroke="#b8543d" stroke-width="0.7" stroke-opacity=".6"/><path d="M466.0 227.0 q5.3 -7.5 10.6 0" fill="none" stroke="#b8543d" stroke-width="1.1" opacity=".7"/><ellipse cx="520.3" cy="388.0" rx="23.1" ry="9.7" fill="#6f8a5e" transform="rotate(23 520.3 388.0)"/><line x1="501.1" y1="380.1" x2="539.4" y2="396.0" stroke="#4f6843" stroke-width="1.2" opacity=".6"/><ellipse cx="518.7" cy="383.7" rx="23.1" ry="9.7" fill="#6f8a5e" transform="rotate(144 518.7 383.7)"/><line x1="535.6" y1="371.6" x2="501.8" y2="395.8" stroke="#4f6843" stroke-width="1.2" opacity=".6"/><ellipse cx="528.6" cy="364.8" rx="16.5" ry="6.9" fill="#6f8a5e" transform="rotate(194 528.6 364.8)"/><line x1="543.0" y1="368.4" x2="514.2" y2="361.2" stroke="#4f6843" stroke-width="0.8" opacity=".6"/><ellipse cx="531.1" cy="355.6" rx="16.5" ry="6.9" fill="#6f8a5e" transform="rotate(159 531.1 355.6)"/><line x1="545.0" y1="350.2" x2="517.3" y2="360.9" stroke="#4f6843" stroke-width="0.8" opacity=".6"/><ellipse cx="543.9" cy="361.1" rx="17.7" ry="7.4" fill="#6f8a5e" transform="rotate(13 543.9 361.1)"/><line x1="528.4" y1="357.6" x2="559.4" y2="364.6" stroke="#4f6843" stroke-width="0.9" opacity=".6"/><ellipse cx="506.0" cy="363.9" rx="17.7" ry="7.4" fill="#6f8a5e" transform="rotate(18 506.0 363.9)"/><line x1="490.9" y1="359.0" x2="521.1" y2="368.9" stroke="#4f6843" stroke-width="0.9" opacity=".6"/><ellipse cx="466.7" cy="358.1" rx="15.7" ry="6.6" fill="#6f8a5e" transform="rotate(163 466.7 358.1)"/><line x1="480.3" y1="354.1" x2="453.1" y2="362.2" stroke="#4f6843" stroke-width="0.8" opacity=".6"/><ellipse cx="498.1" cy="366.0" rx="15.7" ry="6.6" fill="#6f8a5e" transform="rotate(165 498.1 366.0)"/><line x1="511.8" y1="362.4" x2="484.5" y2="369.7" stroke="#4f6843" stroke-width="0.8" opacity=".6"/><ellipse cx="518.8" cy="359.1" rx="20.1" ry="8.4" fill="#6f8a5e" transform="rotate(161 518.8 359.1)"/><line x1="535.9" y1="353.2" x2="501.7" y2="365.0" stroke="#4f6843" stroke-width="1.0" opacity=".6"/><ellipse cx="531.8" cy="369.7" rx="20.1" ry="8.4" fill="#6f8a5e" transform="rotate(251 531.8 369.7)"/><line x1="537.6" y1="386.9" x2="525.9" y2="352.6" stroke="#4f6843" stroke-width="1.0" opacity=".6"/><circle cx="521.7" cy="359.1" r="22.3" fill="#ec8d73"/><circle cx="533.9" cy="359.1" r="11.2" fill="#ec8d73" stroke="#b8543d" stroke-width="0.9" opacity=".95"/><circle cx="529.3" cy="368.7" r="11.2" fill="#ec8d73" stroke="#b8543d" stroke-width="0.9" opacity=".95"/><circle cx="518.9" cy="371.1" r="11.2" fill="#ec8d73" stroke="#b8543d" stroke-width="0.9" opacity=".95"/><circle cx="510.6" cy="364.4" r="11.2" fill="#ec8d73" stroke="#b8543d" stroke-width="0.9" opacity=".95"/><circle cx="510.6" cy="353.7" r="11.2" fill="#ec8d73" stroke="#b8543d" stroke-width="0.9" opacity=".95"/><circle cx="518.9" cy="347.1" r="11.2" fill="#ec8d73" stroke="#b8543d" stroke-width="0.9" opacity=".95"/><circle cx="529.3" cy="349.5" r="11.2" fill="#ec8d73" stroke="#b8543d" stroke-width="0.9" opacity=".95"/><circle cx="521.7" cy="359.1" r="13.8" fill="#f7b8a4" stroke="#b8543d" stroke-width="0.8" stroke-opacity=".6"/><circle cx="522.8" cy="358.2" r="10.1" fill="#ec8d73" stroke="#b8543d" stroke-width="0.8" stroke-opacity=".6"/><circle cx="523.9" cy="357.3" r="6.7" fill="#f7b8a4" stroke="#b8543d" stroke-width="0.8" stroke-opacity=".6"/><circle cx="525.0" cy="356.4" r="3.6" fill="#b8543d" stroke="#b8543d" stroke-width="0.8" stroke-opacity=".6"/><path d="M516.1 359.1 q5.6 -7.8 11.2 0" fill="none" stroke="#b8543d" stroke-width="1.1" opacity=".7"/><circle cx="531.5" cy="362.9" r="18.4" fill="#f8ecdc"/><circle cx="541.6" cy="362.9" r="9.2" fill="#f8ecdc" stroke="#cdb38f" stroke-width="0.7" opacity=".95"/><circle cx="537.8" cy="370.8" r="9.2" fill="#f8ecdc" stroke="#cdb38f" stroke-width="0.7" opacity=".95"/><circle cx="529.3" cy="372.8" r="9.2" fill="#f8ecdc" stroke="#cdb38f" stroke-width="0.7" opacity=".95"/><circle cx="522.4" cy="367.3" r="9.2" fill="#f8ecdc" stroke="#cdb38f" stroke-width="0.7" opacity=".95"/><circle cx="522.4" cy="358.6" r="9.2" fill="#f8ecdc" stroke="#cdb38f" stroke-width="0.7" opacity=".95"/><circle cx="529.3" cy="353.1" r="9.2" fill="#f8ecdc" stroke="#cdb38f" stroke-width="0.7" opacity=".95"/><circle cx="537.8" cy="355.0" r="9.2" fill="#f8ecdc" stroke="#cdb38f" stroke-width="0.7" opacity=".95"/><circle cx="531.5" cy="362.9" r="11.4" fill="#fffaf2" stroke="#cdb38f" stroke-width="0.6" stroke-opacity=".6"/><circle cx="532.4" cy="362.2" r="8.3" fill="#f8ecdc" stroke="#cdb38f" stroke-width="0.6" stroke-opacity=".6"/><circle cx="533.3" cy="361.5" r="5.5" fill="#fffaf2" stroke="#cdb38f" stroke-width="0.6" stroke-opacity=".6"/><circle cx="534.3" cy="360.7" r="2.9" fill="#cdb38f" stroke="#cdb38f" stroke-width="0.6" stroke-opacity=".6"/><path d="M526.9 362.9 q4.6 -6.4 9.2 0" fill="none" stroke="#cdb38f" stroke-width="0.9" opacity=".7"/><circle cx="525.5" cy="363.1" r="19.6" fill="#f5b99a"/><circle cx="536.3" cy="363.1" r="9.8" fill="#f5b99a" stroke="#cf7a55" stroke-width="0.8" opacity=".95"/><circle cx="532.3" cy="371.5" r="9.8" fill="#f5b99a" stroke="#cf7a55" stroke-width="0.8" opacity=".95"/><circle cx="523.1" cy="373.6" r="9.8" fill="#f5b99a" stroke="#cf7a55" stroke-width="0.8" opacity=".95"/><circle cx="515.8" cy="367.8" r="9.8" fill="#f5b99a" stroke="#cf7a55" stroke-width="0.8" opacity=".95"/><circle cx="515.8" cy="358.4" r="9.8" fill="#f5b99a" stroke="#cf7a55" stroke-width="0.8" opacity=".95"/><circle cx="523.1" cy="352.6" r="9.8" fill="#f5b99a" stroke="#cf7a55" stroke-width="0.8" opacity=".95"/><circle cx="532.3" cy="354.7" r="9.8" fill="#f5b99a" stroke="#cf7a55" stroke-width="0.8" opacity=".95"/><circle cx="525.5" cy="363.1" r="12.2" fill="#fbdcc8" stroke="#cf7a55" stroke-width="0.7" stroke-opacity=".6"/><circle cx="526.5" cy="362.3" r="8.8" fill="#f5b99a" stroke="#cf7a55" stroke-width="0.7" stroke-opacity=".6"/><circle cx="527.5" cy="361.5" r="5.9" fill="#fbdcc8" stroke="#cf7a55" stroke-width="0.7" stroke-opacity=".6"/><circle cx="528.5" cy="360.7" r="3.1" fill="#cf7a55" stroke="#cf7a55" stroke-width="0.7" stroke-opacity=".6"/><path d="M520.6 363.1 q4.9 -6.9 9.8 0" fill="none" stroke="#cf7a55" stroke-width="1.0" opacity=".7"/><circle cx="480.9" cy="366.4" r="17.5" fill="#ec8d73"/><circle cx="490.5" cy="366.4" r="8.7" fill="#ec8d73" stroke="#b8543d" stroke-width="0.7" opacity=".95"/><circle cx="486.9" cy="373.9" r="8.7" fill="#ec8d73" stroke="#b8543d" stroke-width="0.7" opacity=".95"/><circle cx="478.8" cy="375.7" r="8.7" fill="#ec8d73" stroke="#b8543d" stroke-width="0.7" opacity=".95"/><circle cx="472.2" cy="370.5" r="8.7" fill="#ec8d73" stroke="#b8543d" stroke-width="0.7" opacity=".95"/><circle cx="472.2" cy="362.2" r="8.7" fill="#ec8d73" stroke="#b8543d" stroke-width="0.7" opacity=".95"/><circle cx="478.8" cy="357.0" r="8.7" fill="#ec8d73" stroke="#b8543d" stroke-width="0.7" opacity=".95"/><circle cx="486.9" cy="358.8" r="8.7" fill="#ec8d73" stroke="#b8543d" stroke-width="0.7" opacity=".95"/><circle cx="480.9" cy="366.4" r="10.8" fill="#f7b8a4" stroke="#b8543d" stroke-width="0.6" stroke-opacity=".6"/><circle cx="481.8" cy="365.7" r="7.9" fill="#ec8d73" stroke="#b8543d" stroke-width="0.6" stroke-opacity=".6"/><circle cx="482.7" cy="365.0" r="5.2" fill="#f7b8a4" stroke="#b8543d" stroke-width="0.6" stroke-opacity=".6"/><circle cx="483.5" cy="364.3" r="2.8" fill="#b8543d" stroke="#b8543d" stroke-width="0.6" stroke-opacity=".6"/><path d="M476.5 366.4 q4.4 -6.1 8.7 0" fill="none" stroke="#b8543d" stroke-width="0.9" opacity=".7"/><circle cx="519.2" cy="384.9" r="25.7" fill="#ec8d73"/><circle cx="533.3" cy="384.9" r="12.8" fill="#ec8d73" stroke="#b8543d" stroke-width="1.0" opacity=".95"/><circle cx="528.0" cy="395.9" r="12.8" fill="#ec8d73" stroke="#b8543d" stroke-width="1.0" opacity=".95"/><circle cx="516.1" cy="398.7" r="12.8" fill="#ec8d73" stroke="#b8543d" stroke-width="1.0" opacity=".95"/><circle cx="506.5" cy="391.0" r="12.8" fill="#ec8d73" stroke="#b8543d" stroke-width="1.0" opacity=".95"/><circle cx="506.5" cy="378.8" r="12.8" fill="#ec8d73" stroke="#b8543d" stroke-width="1.0" opacity=".95"/><circle cx="516.1" cy="371.1" r="12.8" fill="#ec8d73" stroke="#b8543d" stroke-width="1.0" opacity=".95"/><circle cx="528.0" cy="373.9" r="12.8" fill="#ec8d73" stroke="#b8543d" stroke-width="1.0" opacity=".95"/><circle cx="519.2" cy="384.9" r="15.9" fill="#f7b8a4" stroke="#b8543d" stroke-width="0.9" stroke-opacity=".6"/><circle cx="520.5" cy="383.9" r="11.5" fill="#ec8d73" stroke="#b8543d" stroke-width="0.9" stroke-opacity=".6"/><circle cx="521.8" cy="382.8" r="7.7" fill="#f7b8a4" stroke="#b8543d" stroke-width="0.9" stroke-opacity=".6"/><circle cx="523.1" cy="381.8" r="4.1" fill="#b8543d" stroke="#b8543d" stroke-width="0.9" stroke-opacity=".6"/><path d="M512.8 384.9 q6.4 -9.0 12.8 0" fill="none" stroke="#b8543d" stroke-width="1.3" opacity=".7"/><ellipse cx="285.0" cy="567.4" rx="22.9" ry="9.6" fill="#6f8a5e" transform="rotate(353 285.0 567.4)"/><line x1="264.5" y1="569.8" x2="305.4" y2="564.9" stroke="#4f6843" stroke-width="1.1" opacity=".6"/><ellipse cx="260.5" cy="558.4" rx="22.9" ry="9.6" fill="#6f8a5e" transform="rotate(51 260.5 558.4)"/><line x1="247.5" y1="542.5" x2="273.5" y2="574.4" stroke="#4f6843" stroke-width="1.1" opacity=".6"/><ellipse cx="305.7" cy="546.7" rx="14.2" ry="6.0" fill="#6f8a5e" transform="rotate(69 305.7 546.7)"/><line x1="301.2" y1="534.7" x2="310.3" y2="558.6" stroke="#4f6843" stroke-width="0.8" opacity=".6"/><ellipse cx="298.0" cy="530.8" rx="14.2" ry="6.0" fill="#6f8a5e" transform="rotate(70 298.0 530.8)"/><line x1="293.6" y1="518.8" x2="302.3" y2="542.8" stroke="#4f6843" stroke-width="0.8" opacity=".6"/><ellipse cx="278.8" cy="538.7" rx="22.1" ry="9.3" fill="#6f8a5e" transform="rotate(360 278.8 538.7)"/><line x1="258.9" y1="538.7" x2="298.6" y2="538.6" stroke="#4f6843" stroke-width="1.1" opacity=".6"/><ellipse cx="312.1" cy="549.5" rx="22.1" ry="9.3" fill="#6f8a5e" transform="rotate(268 312.1 549.5)"/><line x1="312.9" y1="569.3" x2="311.3" y2="529.6" stroke="#4f6843" stroke-width="1.1" opacity=".6"/><ellipse cx="239.3" cy="530.0" rx="16.8" ry="7.1" fill="#6f8a5e" transform="rotate(152 239.3 530.0)"/><line x1="252.7" y1="523.0" x2="225.9" y2="537.0" stroke="#4f6843" stroke-width="0.8" opacity=".6"/><ellipse cx="238.1" cy="530.8" rx="16.8" ry="7.1" fill="#6f8a5e" transform="rotate(96 238.1 530.8)"/><line x1="239.6" y1="515.7" x2="236.6" y2="545.8" stroke="#4f6843" stroke-width="0.8" opacity=".6"/><ellipse cx="296.3" cy="566.3" rx="14.3" ry="6.0" fill="#6f8a5e" transform="rotate(226 296.3 566.3)"/><line x1="305.3" y1="575.6" x2="287.3" y2="557.1" stroke="#4f6843" stroke-width="0.8" opacity=".6"/><ellipse cx="291.4" cy="566.0" rx="14.3" ry="6.0" fill="#6f8a5e" transform="rotate(315 291.4 566.0)"/><line x1="282.3" y1="575.1" x2="300.5" y2="556.9" stroke="#4f6843" stroke-width="0.8" opacity=".6"/><circle cx="232.0" cy="529.5" r="18.7" fill="#f5b99a"/><circle cx="242.2" cy="529.5" r="9.3" fill="#f5b99a" stroke="#cf7a55" stroke-width="0.7" opacity=".95"/><circle cx="238.4" cy="537.5" r="9.3" fill="#f5b99a" stroke="#cf7a55" stroke-width="0.7" opacity=".95"/><circle cx="229.7" cy="539.5" r="9.3" fill="#f5b99a" stroke="#cf7a55" stroke-width="0.7" opacity=".95"/><circle cx="222.7" cy="534.0" r="9.3" fill="#f5b99a" stroke="#cf7a55" stroke-width="0.7" opacity=".95"/><circle cx="222.7" cy="525.1" r="9.3" fill="#f5b99a" stroke="#cf7a55" stroke-width="0.7" opacity=".95"/><circle cx="229.7" cy="519.5" r="9.3" fill="#f5b99a" stroke="#cf7a55" stroke-width="0.7" opacity=".95"/><circle cx="238.4" cy="521.5" r="9.3" fill="#f5b99a" stroke="#cf7a55" stroke-width="0.7" opacity=".95"/><circle cx="232.0" cy="529.5" r="11.6" fill="#fbdcc8" stroke="#cf7a55" stroke-width="0.7" stroke-opacity=".6"/><circle cx="232.9" cy="528.8" r="8.4" fill="#f5b99a" stroke="#cf7a55" stroke-width="0.7" stroke-opacity=".6"/><circle cx="233.8" cy="528.0" r="5.6" fill="#fbdcc8" stroke="#cf7a55" stroke-width="0.7" stroke-opacity=".6"/><circle cx="234.8" cy="527.3" r="3.0" fill="#cf7a55" stroke="#cf7a55" stroke-width="0.7" stroke-opacity=".6"/><path d="M227.3 529.5 q4.7 -6.5 9.3 0" fill="none" stroke="#cf7a55" stroke-width="0.9" opacity=".7"/><circle cx="302.7" cy="538.7" r="15.8" fill="#f5b99a"/><circle cx="311.4" cy="538.7" r="7.9" fill="#f5b99a" stroke="#cf7a55" stroke-width="0.6" opacity=".95"/><circle cx="308.1" cy="545.5" r="7.9" fill="#f5b99a" stroke="#cf7a55" stroke-width="0.6" opacity=".95"/><circle cx="300.8" cy="547.2" r="7.9" fill="#f5b99a" stroke="#cf7a55" stroke-width="0.6" opacity=".95"/><circle cx="294.9" cy="542.5" r="7.9" fill="#f5b99a" stroke="#cf7a55" stroke-width="0.6" opacity=".95"/><circle cx="294.9" cy="535.0" r="7.9" fill="#f5b99a" stroke="#cf7a55" stroke-width="0.6" opacity=".95"/><circle cx="300.8" cy="530.3" r="7.9" fill="#f5b99a" stroke="#cf7a55" stroke-width="0.6" opacity=".95"/><circle cx="308.1" cy="531.9" r="7.9" fill="#f5b99a" stroke="#cf7a55" stroke-width="0.6" opacity=".95"/><circle cx="302.7" cy="538.7" r="9.8" fill="#fbdcc8" stroke="#cf7a55" stroke-width="0.6" stroke-opacity=".6"/><circle cx="303.5" cy="538.1" r="7.1" fill="#f5b99a" stroke="#cf7a55" stroke-width="0.6" stroke-opacity=".6"/><circle cx="304.3" cy="537.5" r="4.7" fill="#fbdcc8" stroke="#cf7a55" stroke-width="0.6" stroke-opacity=".6"/><circle cx="305.1" cy="536.8" r="2.5" fill="#cf7a55" stroke="#cf7a55" stroke-width="0.6" stroke-opacity=".6"/><path d="M298.8 538.7 q3.9 -5.5 7.9 0" fill="none" stroke="#cf7a55" stroke-width="0.8" opacity=".7"/><circle cx="293.1" cy="550.5" r="24.5" fill="#ec8d73"/><circle cx="306.6" cy="550.5" r="12.3" fill="#ec8d73" stroke="#b8543d" stroke-width="1.0" opacity=".95"/><circle cx="301.5" cy="561.1" r="12.3" fill="#ec8d73" stroke="#b8543d" stroke-width="1.0" opacity=".95"/><circle cx="290.1" cy="563.7" r="12.3" fill="#ec8d73" stroke="#b8543d" stroke-width="1.0" opacity=".95"/><circle cx="281.0" cy="556.4" r="12.3" fill="#ec8d73" stroke="#b8543d" stroke-width="1.0" opacity=".95"/><circle cx="281.0" cy="544.7" r="12.3" fill="#ec8d73" stroke="#b8543d" stroke-width="1.0" opacity=".95"/><circle cx="290.1" cy="537.4" r="12.3" fill="#ec8d73" stroke="#b8543d" stroke-width="1.0" opacity=".95"/><circle cx="301.5" cy="540.0" r="12.3" fill="#ec8d73" stroke="#b8543d" stroke-width="1.0" opacity=".95"/><circle cx="293.1" cy="550.5" r="15.2" fill="#f7b8a4" stroke="#b8543d" stroke-width="0.9" stroke-opacity=".6"/><circle cx="294.3" cy="549.6" r="11.0" fill="#ec8d73" stroke="#b8543d" stroke-width="0.9" stroke-opacity=".6"/><circle cx="295.6" cy="548.6" r="7.4" fill="#f7b8a4" stroke="#b8543d" stroke-width="0.9" stroke-opacity=".6"/><circle cx="296.8" cy="547.6" r="3.9" fill="#b8543d" stroke="#b8543d" stroke-width="0.9" stroke-opacity=".6"/><path d="M287.0 550.5 q6.1 -8.6 12.3 0" fill="none" stroke="#b8543d" stroke-width="1.2" opacity=".7"/><circle cx="271.4" cy="553.3" r="25.4" fill="#f5b99a"/><circle cx="285.4" cy="553.3" r="12.7" fill="#f5b99a" stroke="#cf7a55" stroke-width="1.0" opacity=".95"/><circle cx="280.1" cy="564.2" r="12.7" fill="#f5b99a" stroke="#cf7a55" stroke-width="1.0" opacity=".95"/><circle cx="268.3" cy="566.9" r="12.7" fill="#f5b99a" stroke="#cf7a55" stroke-width="1.0" opacity=".95"/><circle cx="258.8" cy="559.3" r="12.7" fill="#f5b99a" stroke="#cf7a55" stroke-width="1.0" opacity=".95"/><circle cx="258.8" cy="547.2" r="12.7" fill="#f5b99a" stroke="#cf7a55" stroke-width="1.0" opacity=".95"/><circle cx="268.3" cy="539.6" r="12.7" fill="#f5b99a" stroke="#cf7a55" stroke-width="1.0" opacity=".95"/><circle cx="280.1" cy="542.3" r="12.7" fill="#f5b99a" stroke="#cf7a55" stroke-width="1.0" opacity=".95"/><circle cx="271.4" cy="553.3" r="15.8" fill="#fbdcc8" stroke="#cf7a55" stroke-width="0.9" stroke-opacity=".6"/><circle cx="272.7" cy="552.2" r="11.4" fill="#f5b99a" stroke="#cf7a55" stroke-width="0.9" stroke-opacity=".6"/><circle cx="273.9" cy="551.2" r="7.6" fill="#fbdcc8" stroke="#cf7a55" stroke-width="0.9" stroke-opacity=".6"/><circle cx="275.2" cy="550.2" r="4.1" fill="#cf7a55" stroke="#cf7a55" stroke-width="0.9" stroke-opacity=".6"/><path d="M265.1 553.3 q6.4 -8.9 12.7 0" fill="none" stroke="#cf7a55" stroke-width="1.3" opacity=".7"/><circle cx="300.6" cy="563.9" r="15.9" fill="#f8ecdc"/><circle cx="309.4" cy="563.9" r="8.0" fill="#f8ecdc" stroke="#cdb38f" stroke-width="0.6" opacity=".95"/><circle cx="306.1" cy="570.8" r="8.0" fill="#f8ecdc" stroke="#cdb38f" stroke-width="0.6" opacity=".95"/><circle cx="298.7" cy="572.4" r="8.0" fill="#f8ecdc" stroke="#cdb38f" stroke-width="0.6" opacity=".95"/><circle cx="292.7" cy="567.7" r="8.0" fill="#f8ecdc" stroke="#cdb38f" stroke-width="0.6" opacity=".95"/><circle cx="292.7" cy="560.1" r="8.0" fill="#f8ecdc" stroke="#cdb38f" stroke-width="0.6" opacity=".95"/><circle cx="298.7" cy="555.4" r="8.0" fill="#f8ecdc" stroke="#cdb38f" stroke-width="0.6" opacity=".95"/><circle cx="306.1" cy="557.1" r="8.0" fill="#f8ecdc" stroke="#cdb38f" stroke-width="0.6" opacity=".95"/><circle cx="300.6" cy="563.9" r="9.9" fill="#fffaf2" stroke="#cdb38f" stroke-width="0.6" stroke-opacity=".6"/><circle cx="301.4" cy="563.3" r="7.2" fill="#f8ecdc" stroke="#cdb38f" stroke-width="0.6" stroke-opacity=".6"/><circle cx="302.2" cy="562.6" r="4.8" fill="#fffaf2" stroke="#cdb38f" stroke-width="0.6" stroke-opacity=".6"/><circle cx="303.0" cy="562.0" r="2.5" fill="#cdb38f" stroke="#cdb38f" stroke-width="0.6" stroke-opacity=".6"/><path d="M296.6 563.9 q4.0 -5.6 8.0 0" fill="none" stroke="#cdb38f" stroke-width="0.8" opacity=".7"/><ellipse cx="500.2" cy="634.2" rx="12.6" ry="5.3" fill="#6f8a5e" transform="rotate(132 500.2 634.2)"/><line x1="507.8" y1="625.9" x2="492.6" y2="642.6" stroke="#4f6843" stroke-width="0.8" opacity=".6"/><ellipse cx="518.1" cy="640.5" rx="12.6" ry="5.3" fill="#6f8a5e" transform="rotate(61 518.1 640.5)"/><line x1="512.5" y1="630.6" x2="523.6" y2="650.3" stroke="#4f6843" stroke-width="0.8" opacity=".6"/><ellipse cx="497.4" cy="650.5" rx="15.3" ry="6.4" fill="#6f8a5e" transform="rotate(203 497.4 650.5)"/><line x1="510.1" y1="656.0" x2="484.7" y2="645.1" stroke="#4f6843" stroke-width="0.8" opacity=".6"/><ellipse cx="497.2" cy="657.0" rx="15.3" ry="6.4" fill="#6f8a5e" transform="rotate(110 497.2 657.0)"/><line x1="501.9" y1="644.1" x2="492.4" y2="670.0" stroke="#4f6843" stroke-width="0.8" opacity=".6"/><ellipse cx="415.3" cy="648.9" rx="18.1" ry="7.6" fill="#6f8a5e" transform="rotate(27 415.3 648.9)"/><line x1="400.7" y1="641.6" x2="429.8" y2="656.2" stroke="#4f6843" stroke-width="0.9" opacity=".6"/><ellipse cx="407.4" cy="642.2" rx="18.1" ry="7.6" fill="#6f8a5e" transform="rotate(218 407.4 642.2)"/><line x1="420.2" y1="652.3" x2="394.6" y2="632.2" stroke="#4f6843" stroke-width="0.9" opacity=".6"/><ellipse cx="404.2" cy="590.3" rx="16.8" ry="7.1" fill="#6f8a5e" transform="rotate(200 404.2 590.3)"/><line x1="418.5" y1="595.5" x2="390.0" y2="585.0" stroke="#4f6843" stroke-width="0.8" opacity=".6"/><ellipse cx="425.8" cy="584.5" rx="16.8" ry="7.1" fill="#6f8a5e" transform="rotate(205 425.8 584.5)"/><line x1="439.5" y1="591.0" x2="412.1" y2="578.1" stroke="#4f6843" stroke-width="0.8" opacity=".6"/><ellipse cx="384.4" cy="630.6" rx="15.3" ry="6.4" fill="#6f8a5e" transform="rotate(205 384.4 630.6)"/><line x1="396.9" y1="636.4" x2="371.9" y2="624.8" stroke="#4f6843" stroke-width="0.8" opacity=".6"/><ellipse cx="415.4" cy="640.7" rx="15.3" ry="6.4" fill="#6f8a5e" transform="rotate(290 415.4 640.7)"/><line x1="410.8" y1="653.7" x2="420.0" y2="627.7" stroke="#4f6843" stroke-width="0.8" opacity=".6"/><ellipse cx="421.2" cy="608.8" rx="16.6" ry="7.0" fill="#6f8a5e" transform="rotate(122 421.2 608.8)"/><line x1="429.2" y1="596.2" x2="413.3" y2="621.5" stroke="#4f6843" stroke-width="0.8" opacity=".6"/><ellipse cx="432.1" cy="604.4" rx="16.6" ry="7.0" fill="#6f8a5e" transform="rotate(336 432.1 604.4)"/><line x1="418.5" y1="610.5" x2="445.7" y2="598.2" stroke="#4f6843" stroke-width="0.8" opacity=".6"/><circle cx="413.9" cy="594.6" r="18.7" fill="#ec8d73"/><circle cx="424.2" cy="594.6" r="9.3" fill="#ec8d73" stroke="#b8543d" stroke-width="0.7" opacity=".95"/><circle cx="420.3" cy="602.6" r="9.3" fill="#ec8d73" stroke="#b8543d" stroke-width="0.7" opacity=".95"/><circle cx="411.6" cy="604.6" r="9.3" fill="#ec8d73" stroke="#b8543d" stroke-width="0.7" opacity=".95"/><circle cx="404.7" cy="599.0" r="9.3" fill="#ec8d73" stroke="#b8543d" stroke-width="0.7" opacity=".95"/><circle cx="404.7" cy="590.1" r="9.3" fill="#ec8d73" stroke="#b8543d" stroke-width="0.7" opacity=".95"/><circle cx="411.6" cy="584.5" r="9.3" fill="#ec8d73" stroke="#b8543d" stroke-width="0.7" opacity=".95"/><circle cx="420.3" cy="586.5" r="9.3" fill="#ec8d73" stroke="#b8543d" stroke-width="0.7" opacity=".95"/><circle cx="413.9" cy="594.6" r="11.6" fill="#f7b8a4" stroke="#b8543d" stroke-width="0.7" stroke-opacity=".6"/><circle cx="414.9" cy="593.8" r="8.4" fill="#ec8d73" stroke="#b8543d" stroke-width="0.7" stroke-opacity=".6"/><circle cx="415.8" cy="593.1" r="5.6" fill="#f7b8a4" stroke="#b8543d" stroke-width="0.7" stroke-opacity=".6"/><circle cx="416.7" cy="592.3" r="3.0" fill="#b8543d" stroke="#b8543d" stroke-width="0.7" stroke-opacity=".6"/><path d="M409.3 594.6 q4.7 -6.5 9.3 0" fill="none" stroke="#b8543d" stroke-width="0.9" opacity=".7"/><circle cx="417.8" cy="611.2" r="18.4" fill="#ec8d73"/><circle cx="427.9" cy="611.2" r="9.2" fill="#ec8d73" stroke="#b8543d" stroke-width="0.7" opacity=".95"/><circle cx="424.1" cy="619.1" r="9.2" fill="#ec8d73" stroke="#b8543d" stroke-width="0.7" opacity=".95"/><circle cx="415.5" cy="621.1" r="9.2" fill="#ec8d73" stroke="#b8543d" stroke-width="0.7" opacity=".95"/><circle cx="408.6" cy="615.6" r="9.2" fill="#ec8d73" stroke="#b8543d" stroke-width="0.7" opacity=".95"/><circle cx="408.6" cy="606.8" r="9.2" fill="#ec8d73" stroke="#b8543d" stroke-width="0.7" opacity=".95"/><circle cx="415.5" cy="601.3" r="9.2" fill="#ec8d73" stroke="#b8543d" stroke-width="0.7" opacity=".95"/><circle cx="424.1" cy="603.3" r="9.2" fill="#ec8d73" stroke="#b8543d" stroke-width="0.7" opacity=".95"/><circle cx="417.8" cy="611.2" r="11.4" fill="#f7b8a4" stroke="#b8543d" stroke-width="0.6" stroke-opacity=".6"/><circle cx="418.7" cy="610.5" r="8.3" fill="#ec8d73" stroke="#b8543d" stroke-width="0.6" stroke-opacity=".6"/><circle cx="419.6" cy="609.7" r="5.5" fill="#f7b8a4" stroke="#b8543d" stroke-width="0.6" stroke-opacity=".6"/><circle cx="420.6" cy="609.0" r="3.0" fill="#b8543d" stroke="#b8543d" stroke-width="0.6" stroke-opacity=".6"/><path d="M413.2 611.2 q4.6 -6.5 9.2 0" fill="none" stroke="#b8543d" stroke-width="0.9" opacity=".7"/><circle cx="398.9" cy="632.2" r="17.0" fill="#ec8d73"/><circle cx="408.3" cy="632.2" r="8.5" fill="#ec8d73" stroke="#b8543d" stroke-width="0.7" opacity=".95"/><circle cx="404.7" cy="639.5" r="8.5" fill="#ec8d73" stroke="#b8543d" stroke-width="0.7" opacity=".95"/><circle cx="396.8" cy="641.3" r="8.5" fill="#ec8d73" stroke="#b8543d" stroke-width="0.7" opacity=".95"/><circle cx="390.5" cy="636.3" r="8.5" fill="#ec8d73" stroke="#b8543d" stroke-width="0.7" opacity=".95"/><circle cx="390.5" cy="628.1" r="8.5" fill="#ec8d73" stroke="#b8543d" stroke-width="0.7" opacity=".95"/><circle cx="396.8" cy="623.1" r="8.5" fill="#ec8d73" stroke="#b8543d" stroke-width="0.7" opacity=".95"/><circle cx="404.7" cy="624.9" r="8.5" fill="#ec8d73" stroke="#b8543d" stroke-width="0.7" opacity=".95"/><circle cx="398.9" cy="632.2" r="10.6" fill="#f7b8a4" stroke="#b8543d" stroke-width="0.6" stroke-opacity=".6"/><circle cx="399.8" cy="631.5" r="7.7" fill="#ec8d73" stroke="#b8543d" stroke-width="0.6" stroke-opacity=".6"/><circle cx="400.6" cy="630.8" r="5.1" fill="#f7b8a4" stroke="#b8543d" stroke-width="0.6" stroke-opacity=".6"/><circle cx="401.5" cy="630.1" r="2.7" fill="#b8543d" stroke="#b8543d" stroke-width="0.6" stroke-opacity=".6"/><path d="M394.6 632.2 q4.3 -6.0 8.5 0" fill="none" stroke="#b8543d" stroke-width="0.9" opacity=".7"/><circle cx="511.9" cy="633.6" r="14.0" fill="#ec8d73"/><circle cx="519.5" cy="633.6" r="7.0" fill="#ec8d73" stroke="#b8543d" stroke-width="0.6" opacity=".95"/><circle cx="516.7" cy="639.6" r="7.0" fill="#ec8d73" stroke="#b8543d" stroke-width="0.6" opacity=".95"/><circle cx="510.2" cy="641.1" r="7.0" fill="#ec8d73" stroke="#b8543d" stroke-width="0.6" opacity=".95"/><circle cx="504.9" cy="636.9" r="7.0" fill="#ec8d73" stroke="#b8543d" stroke-width="0.6" opacity=".95"/><circle cx="504.9" cy="630.2" r="7.0" fill="#ec8d73" stroke="#b8543d" stroke-width="0.6" opacity=".95"/><circle cx="510.2" cy="626.1" r="7.0" fill="#ec8d73" stroke="#b8543d" stroke-width="0.6" opacity=".95"/><circle cx="516.7" cy="627.6" r="7.0" fill="#ec8d73" stroke="#b8543d" stroke-width="0.6" opacity=".95"/><circle cx="511.9" cy="633.6" r="8.7" fill="#f7b8a4" stroke="#b8543d" stroke-width="0.5" stroke-opacity=".6"/><circle cx="512.6" cy="633.0" r="6.3" fill="#ec8d73" stroke="#b8543d" stroke-width="0.5" stroke-opacity=".6"/><circle cx="513.3" cy="632.5" r="4.2" fill="#f7b8a4" stroke="#b8543d" stroke-width="0.5" stroke-opacity=".6"/><circle cx="514.0" cy="631.9" r="2.2" fill="#b8543d" stroke="#b8543d" stroke-width="0.5" stroke-opacity=".6"/><path d="M508.4 633.6 q3.5 -4.9 7.0 0" fill="none" stroke="#b8543d" stroke-width="0.7" opacity=".7"/><circle cx="411.6" cy="645.2" r="20.1" fill="#ec8d73"/><circle cx="422.6" cy="645.2" r="10.1" fill="#ec8d73" stroke="#b8543d" stroke-width="0.8" opacity=".95"/><circle cx="418.5" cy="653.9" r="10.1" fill="#ec8d73" stroke="#b8543d" stroke-width="0.8" opacity=".95"/><circle cx="409.1" cy="656.0" r="10.1" fill="#ec8d73" stroke="#b8543d" stroke-width="0.8" opacity=".95"/><circle cx="401.6" cy="650.0" r="10.1" fill="#ec8d73" stroke="#b8543d" stroke-width="0.8" opacity=".95"/><circle cx="401.6" cy="640.4" r="10.1" fill="#ec8d73" stroke="#b8543d" stroke-width="0.8" opacity=".95"/><circle cx="409.1" cy="634.5" r="10.1" fill="#ec8d73" stroke="#b8543d" stroke-width="0.8" opacity=".95"/><circle cx="418.5" cy="636.6" r="10.1" fill="#ec8d73" stroke="#b8543d" stroke-width="0.8" opacity=".95"/><circle cx="411.6" cy="645.2" r="12.5" fill="#f7b8a4" stroke="#b8543d" stroke-width="0.7" stroke-opacity=".6"/><circle cx="412.6" cy="644.4" r="9.1" fill="#ec8d73" stroke="#b8543d" stroke-width="0.7" stroke-opacity=".6"/><circle cx="413.6" cy="643.6" r="6.0" fill="#f7b8a4" stroke="#b8543d" stroke-width="0.7" stroke-opacity=".6"/><circle cx="414.6" cy="642.8" r="3.2" fill="#b8543d" stroke="#b8543d" stroke-width="0.7" stroke-opacity=".6"/><path d="M406.5 645.2 q5.0 -7.0 10.1 0" fill="none" stroke="#b8543d" stroke-width="1.0" opacity=".7"/><circle cx="493.9" cy="652.3" r="17.0" fill="#ec8d73"/><circle cx="503.3" cy="652.3" r="8.5" fill="#ec8d73" stroke="#b8543d" stroke-width="0.7" opacity=".95"/><circle cx="499.7" cy="659.6" r="8.5" fill="#ec8d73" stroke="#b8543d" stroke-width="0.7" opacity=".95"/><circle cx="491.8" cy="661.4" r="8.5" fill="#ec8d73" stroke="#b8543d" stroke-width="0.7" opacity=".95"/><circle cx="485.5" cy="656.3" r="8.5" fill="#ec8d73" stroke="#b8543d" stroke-width="0.7" opacity=".95"/><circle cx="485.5" cy="648.2" r="8.5" fill="#ec8d73" stroke="#b8543d" stroke-width="0.7" opacity=".95"/><circle cx="491.8" cy="643.1" r="8.5" fill="#ec8d73" stroke="#b8543d" stroke-width="0.7" opacity=".95"/><circle cx="499.7" cy="644.9" r="8.5" fill="#ec8d73" stroke="#b8543d" stroke-width="0.7" opacity=".95"/><circle cx="493.9" cy="652.3" r="10.6" fill="#f7b8a4" stroke="#b8543d" stroke-width="0.6" stroke-opacity=".6"/><circle cx="494.8" cy="651.6" r="7.7" fill="#ec8d73" stroke="#b8543d" stroke-width="0.6" stroke-opacity=".6"/><circle cx="495.6" cy="650.9" r="5.1" fill="#f7b8a4" stroke="#b8543d" stroke-width="0.6" stroke-opacity=".6"/><circle cx="496.5" cy="650.2" r="2.7" fill="#b8543d" stroke="#b8543d" stroke-width="0.6" stroke-opacity=".6"/><path d="M489.6 652.3 q4.3 -6.0 8.5 0" fill="none" stroke="#b8543d" stroke-width="0.9" opacity=".7"/></g></svg>