<svg xmlns="http://www.w3.org/2000/svg" viewBox="0 0 800 800" width="800" height="800" preserveAspectRatio="xMidYMid slice"><defs><filter id="blur" x="-50%" y="-50%" width="200%" height="200%"><feGaussianBlur stdDeviation="14"/></filter><filter id="soft"><feGaussianBlur stdDeviation="3"/></filter><filter id="shadow" x="-20%" y="-20%" width="140%" height="160%"><feDropShadow dx="0" dy="10" stdDeviation="12" flood-color="#3a2219" flood-opacity=".28"/></filter><linearGradient id="bg" x1="0" y1="0" x2="0" y2="1"><stop offset="0" stop-color="#f6ece8"/><stop offset="1" stop-color="#e6cdc6"/></linearGradient><linearGradient id="cakeW" x1="0" y1="0" x2="1" y2="0"><stop offset="0" stop-color="#e2d3c3"/><stop offset="0.35" stop-color="#fdf7ef"/><stop offset="0.6" stop-color="#fdf7ef"/><stop offset="1" stop-color="#e2d3c3"/></linearGradient><linearGradient id="cakeP" x1="0" y1="0" x2="1" y2="0"><stop offset="0" stop-color="#e5b9bd"/><stop offset="0.35" stop-color="#fbe3e4"/><stop offset="0.6" stop-color="#fbe3e4"/><stop offset="1" stop-color="#e5b9bd"/></linearGradient><linearGradient id="cakeB" x1="0" y1="0" x2="1" y2="0"><stop offset="0" stop-color="#9ccbdd"/><stop offset="0.35" stop-color="#d5eef7"/><stop offset="0.6" stop-color="#d5eef7"/><stop offset="1" stop-color="#9ccbdd"/></linearGradient><linearGradient id="cakeC" x1="0" y1="0" x2="1" y2="0"><stop offset="0" stop-color="#3d2014"/><stop offset="0.35" stop-color="#6d3f2a"/><stop offset="0.6" stop-color="#6d3f2a"/><stop offset="1" stop-color="#3d2014"/></linearGradient><linearGradient id="cakeS" x1="0" y1="0" x2="1" y2="0"><stop offset="0" stop-color="#e6d6c4"/><stop offset="0.35" stop-color="#fffaf2"/><stop offset="0.6" stop-color="#fffaf2"/><stop offset="1" stop-color="#e6d6c4"/></linearGradient></defs><rect width="800" height="800" fill="url(#bg)"/><g filter="url(#blur)"><circle cx="189" cy="83" r="36" fill="#ffffff" opacity="0.33"/><circle cx="16" cy="440" r="32" fill="#ffffff" opacity="0.37"/><circle cx="429" cy="221" r="27" fill="#ffffff" opacity="0.38"/><circle cx="754" cy="21" r="46" fill="#f8d7da" opacity="0.54"/><circle cx="155" cy="248" r="45" fill="#f8d7da" opacity="0.33"/><circle cx="485" cy="537" r="40" fill="#ffffff" opacity="0.37"/><circle cx="224" cy="756" r="53" fill="#f8d7da" opacity="0.30"/><circle cx="234" cy="564" r="32" fill="#ffffff" opacity="0.42"/><circle cx="479" cy="345" r="26" fill="#f8d7da" opacity="0.38"/><circle cx="638" cy="65" r="39" fill="#f8d7da" opacity="0.46"/><circle cx="518" cy="561" r="26" fill="#ffffff" opacity="0.32"/><circle cx="731" cy="508" r="38" fill="#ffffff" opacity="0.41"/><circle cx="598" cy="257" r="42" fill="#f8d7da" opacity="0.33"/><circle cx="49" cy="183" r="51" fill="#ffffff" opacity="0.34"/><circle cx="748" cy="233" r="21" fill="#f8d7da" opacity="0.51"/><circle cx="717" cy="764" r="49" fill="#f8d7da" opacity="0.31"/><circle cx="231" cy="773" r="51" fill="#f8d7da" opacity="0.56"/><circle cx="696" cy="544" r="23" fill="#ffffff" opacity="0.57"/></g><rect x="0" y="690" width="800" height="110" fill="#efe2dc"/><rect x="0" y="690" width="800" height="6" fill="#fff" opacity=".6"/><g filter="url(#shadow)"><rect x="375" y="640" width="50" height="101" fill="#b9aea6"/><ellipse cx="400" cy="741" rx="101" ry="18" fill="#b9aea6"/><ellipse cx="400" cy="640" rx="216" ry="25" fill="#efe9e4"/><ellipse cx="400" cy="647" rx="216" ry="22" fill="none" stroke="#b9aea6" stroke-width="2"/><rect x="220.0" y="455.2" width="360.0" height="180.0" fill="url(#cakeP)"/><ellipse cx="400.0" cy="635.2" rx="180.0" ry="32.4" fill="url(#cakeP)"/><ellipse cx="400.0" cy="455.2" rx="180.0" ry="32.4" fill="#fffaf4"/><rect x="268.0" y="299.2" width="264.0" height="156.0" fill="url(#cakeP)"/><ellipse cx="400.0" cy="455.2" rx="132.0" ry="23.8" fill="url(#cakeP)"/><ellipse cx="400.0" cy="299.2" rx="132.0" ry="23.8" fill="#fffaf4"/><rect x="310.0" y="167.2" width="180.0" height="132.0" fill="url(#cakeP)"/><ellipse cx="400.0" cy="299.2" rx="90.0" ry="16.2" fill="url(#cakeP)"/><ellipse cx="400.0" cy="167.2" rx="90.0" ry="16.2" fill="#fffaf4"/><ellipse cx="441.9" cy="156.5" rx="26.3" ry="11.1" fill="#6f8a5e" transform="rotate(235 441.9 156.5)"/><line x1="455.7" y1="175.8" x2="428.2" y2="137.1" stroke="#4f6843" stroke-width="1.3" opacity=".6"/><ellipse cx="436.5" cy="128.5" rx="26.3" ry="11.1" fill="#6f8a5e" transform="rotate(158 436.5 128.5)"/><line x1="458.5" y1="119.6" x2="414.5" y2="137.4" stroke="#4f6843" stroke-width="1.3" opacity=".6"/><ellipse cx="459.4" cy="116.7" rx="18.0" ry="7.5" fill="#6f8a5e" transform="rotate(160 459.4 116.7)"/><line x1="474.5" y1="111.1" x2="444.2" y2="122.3" stroke="#4f6843" stroke-width="0.9" opacity=".6"/><ellipse cx="465.6" cy="121.7" rx="18.0" ry="7.5" fill="#6f8a5e" transform="rotate(78 465.6 121.7)"/><line x1="462.1" y1="105.9" x2="469.0" y2="137.5" stroke="#4f6843" stroke-width="0.9" opacity=".6"/><ellipse cx="442.1" cy="154.9" rx="32.4" ry="13.6" fill="#6f8a5e" transform="rotate(91 442.1 154.9)"/><line x1="442.8" y1="125.8" x2="441.5" y2="184.1" stroke="#4f6843" stroke-width="1.6" opacity=".6"/><ellipse cx="466.4" cy="186.7" rx="32.4" ry="13.6" fill="#6f8a5e" transform="rotate(150 466.4 186.7)"/><line x1="491.7" y1="172.2" x2="441.2" y2="201.2" stroke="#4f6843" stroke-width="1.6" opacity=".6"/><ellipse cx="413.4" cy="180.9" rx="23.7" ry="9.9" fill="#6f8a5e" transform="rotate(321 413.4 180.9)"/><line x1="396.9" y1="194.4" x2="430.0" y2="167.4" stroke="#4f6843" stroke-width="1.2" opacity=".6"/><ellipse cx="416.2" cy="174.3" rx="23.7" ry="9.9" fill="#6f8a5e" transform="rotate(205 416.2 174.3)"/><line x1="435.5" y1="183.4" x2="396.9" y2="165.3" stroke="#4f6843" stroke-width="1.2" opacity=".6"/><ellipse cx="457.6" cy="132.6" rx="28.4" ry="11.9" fill="#6f8a5e" transform="rotate(314 457.6 132.6)"/><line x1="440.0" y1="151.2" x2="475.2" y2="114.1" stroke="#4f6843" stroke-width="1.4" opacity=".6"/><ellipse cx="442.1" cy="109.4" rx="28.4" ry="11.9" fill="#6f8a5e" transform="rotate(139 442.1 109.4)"/><line x1="461.5" y1="92.8" x2="422.6" y2="126.0" stroke="#4f6843" stroke-width="1.4" opacity=".6"/><ellipse cx="506.7" cy="142.8" rx="17.9" ry="7.5" fill="#6f8a5e" transform="rotate(206 506.7 142.8)"/><line x1="521.2" y1="149.8" x2="492.2" y2="135.7" stroke="#4f6843" stroke-width="0.9" opacity=".6"/><ellipse cx="527.1" cy="124.5" rx="17.9" ry="7.5" fill="#6f8a5e" transform="rotate(107 527.1 124.5)"/><line x1="531.7" y1="109.1" x2="522.5" y2="139.9" stroke="#4f6843" stroke-width="0.9" opacity=".6"/><ellipse cx="494.8" cy="153.1" rx="17.8" ry="7.5" fill="#6f8a5e" transform="rotate(113 494.8 153.1)"/><line x1="501.1" y1="138.4" x2="488.4" y2="167.9" stroke="#4f6843" stroke-width="0.9" opacity=".6"/><ellipse cx="492.7" cy="136.9" rx="17.8" ry="7.5" fill="#6f8a5e" transform="rotate(289 492.7 136.9)"/><line x1="487.6" y1="152.1" x2="497.8" y2="121.7" stroke="#4f6843" stroke-width="0.9" opacity=".6"/><circle cx="459.7" cy="123.4" r="20.0" fill="#ea8fa5"/><circle cx="470.7" cy="123.4" r="10.0" fill="#ea8fa5" stroke="#b2506a" stroke-width="0.8" opacity=".95"/><circle cx="466.6" cy="132.0" r="10.0" fill="#ea8fa5" stroke="#b2506a" stroke-width="0.8" opacity=".95"/><circle cx="457.3" cy="134.1" r="10.0" fill="#ea8fa5" stroke="#b2506a" stroke-width="0.8" opacity=".95"/><circle cx="449.8" cy="128.2" r="10.0" fill="#ea8fa5" stroke="#b2506a" stroke-width="0.8" opacity=".95"/><circle cx="449.8" cy="118.6" r="10.0" fill="#ea8fa5" stroke="#b2506a" stroke-width="0.8" opacity=".95"/><circle cx="457.3" cy="112.7" r="10.0" fill="#ea8fa5" stroke="#b2506a" stroke-width="0.8" opacity=".95"/><circle cx="466.6" cy="114.8" r="10.0" fill="#ea8fa5" stroke="#b2506a" stroke-width="0.8" opacity=".95"/><circle cx="459.7" cy="123.4" r="12.4" fill="#f7c3cf" stroke="#b2506a" stroke-width="0.7" stroke-opacity=".6"/><circle cx="460.7" cy="122.6" r="9.0" fill="#ea8fa5" stroke="#b2506a" stroke-width="0.7" stroke-opacity=".6"/><circle cx="461.7" cy="121.8" r="6.0" fill="#f7c3cf" stroke="#b2506a" stroke-width="0.7" stroke-opacity=".6"/><circle cx="462.7" cy="121.0" r="3.2" fill="#b2506a" stroke="#b2506a" stroke-width="0.7" stroke-opacity=".6"/><path d="M454.7 123.4 q5.0 -7.0 10.0 0" fill="none" stroke="#b2506a" stroke-width="1.0" opacity=".7"/><circle cx="428.4" cy="126.8" r="31.6" fill="#fbf8f3"/><circle cx="445.7" cy="126.8" r="15.8" fill="#fbf8f3" stroke="#d8cabb" stroke-width="1.3" opacity=".95"/><circle cx="439.2" cy="140.4" r="15.8" fill="#fbf8f3" stroke="#d8cabb" stroke-width="1.3" opacity=".95"/><circle cx="424.5" cy="143.8" r="15.8" fill="#fbf8f3" stroke="#d8cabb" stroke-width="1.3" opacity=".95"/><circle cx="412.7" cy="134.4" r="15.8" fill="#fbf8f3" stroke="#d8cabb" stroke-width="1.3" opacity=".95"/><circle cx="412.7" cy="119.3" r="15.8" fill="#fbf8f3" stroke="#d8cabb" stroke-width="1.3" opacity=".95"/><circle cx="424.5" cy="109.9" r="15.8" fill="#fbf8f3" stroke="#d8cabb" stroke-width="1.3" opacity=".95"/><circle cx="439.2" cy="113.2" r="15.8" fill="#fbf8f3" stroke="#d8cabb" stroke-width="1.3" opacity=".95"/><circle cx="428.4" cy="126.8" r="19.6" fill="#ffffff" stroke="#d8cabb" stroke-width="1.1" stroke-opacity=".6"/><circle cx="429.9" cy="125.6" r="14.2" fill="#fbf8f3" stroke="#d8cabb" stroke-width="1.1" stroke-opacity=".6"/><circle cx="431.5" cy="124.3" r="9.5" fill="#ffffff" stroke="#d8cabb" stroke-width="1.1" stroke-opacity=".6"/><circle cx="433.1" cy="123.0" r="5.1" fill="#d8cabb" stroke="#d8cabb" stroke-width="1.1" stroke-opacity=".6"/><path d="M420.5 126.8 q7.9 -11.1 15.8 0" fill="none" stroke="#d8cabb" stroke-width="1.6" opacity=".7"/><circle cx="509.5" cy="132.5" r="19.9" fill="#f3c1c4"/><circle cx="520.4" cy="132.5" r="9.9" fill="#f3c1c4" stroke="#c9787f" stroke-width="0.8" opacity=".95"/><circle cx="516.3" cy="141.0" r="9.9" fill="#f3c1c4" stroke="#c9787f" stroke-width="0.8" opacity=".95"/><circle cx="507.0" cy="143.2" r="9.9" fill="#f3c1c4" stroke="#c9787f" stroke-width="0.8" opacity=".95"/><circle cx="499.6" cy="137.2" r="9.9" fill="#f3c1c4" stroke="#c9787f" stroke-width="0.8" opacity=".95"/><circle cx="499.6" cy="127.8" r="9.9" fill="#f3c1c4" stroke="#c9787f" stroke-width="0.8" opacity=".95"/><circle cx="507.0" cy="121.8" r="9.9" fill="#f3c1c4" stroke="#c9787f" stroke-width="0.8" opacity=".95"/><circle cx="516.3" cy="123.9" r="9.9" fill="#f3c1c4" stroke="#c9787f" stroke-width="0.8" opacity=".95"/><circle cx="509.5" cy="132.5" r="12.3" fill="#fbe1e1" stroke="#c9787f" stroke-width="0.7" stroke-opacity=".6"/><circle cx="510.5" cy="131.7" r="8.9" fill="#f3c1c4" stroke="#c9787f" stroke-width="0.7" stroke-opacity=".6"/><circle cx="511.5" cy="130.9" r="6.0" fill="#fbe1e1" stroke="#c9787f" stroke-width="0.7" stroke-opacity=".6"/><circle cx="512.4" cy="130.1" r="3.2" fill="#c9787f" stroke="#c9787f" stroke-width="0.7" stroke-opacity=".6"/><path d="M504.5 132.5 q5.0 -7.0 9.9 0" fill="none" stroke="#c9787f" stroke-width="1.0" opacity=".7"/><circle cx="454.0" cy="139.0" r="29.3" fill="#ea8fa5"/><circle cx="470.1" cy="139.0" r="14.6" fill="#ea8fa5" stroke="#b2506a" stroke-width="1.2" opacity=".95"/><circle cx="464.1" cy="151.6" r="14.6" fill="#ea8fa5" stroke="#b2506a" stroke-width="1.2" opacity=".95"/><circle cx="450.5" cy="154.7" r="14.6" fill="#ea8fa5" stroke="#b2506a" stroke-width="1.2" opacity=".95"/><circle cx="439.5" cy="146.0" r="14.6" fill="#ea8fa5" stroke="#b2506a" stroke-width="1.2" opacity=".95"/><circle cx="439.5" cy="132.0" r="14.6" fill="#ea8fa5" stroke="#b2506a" stroke-width="1.2" opacity=".95"/><circle cx="450.5" cy="123.3" r="14.6" fill="#ea8fa5" stroke="#b2506a" stroke-width="1.2" opacity=".95"/><circle cx="464.1" cy="126.4" r="14.6" fill="#ea8fa5" stroke="#b2506a" stroke-width="1.2" opacity=".95"/><circle cx="454.0" cy="139.0" r="18.1" fill="#f7c3cf" stroke="#b2506a" stroke-width="1.0" stroke-opacity=".6"/><circle cx="455.5" cy="137.8" r="13.2" fill="#ea8fa5" stroke="#b2506a" stroke-width="1.0" stroke-opacity=".6"/><circle cx="457.0" cy="136.7" r="8.8" fill="#f7c3cf" stroke="#b2506a" stroke-width="1.0" stroke-opacity=".6"/><circle cx="458.4" cy="135.5" r="4.7" fill="#b2506a" stroke="#b2506a" stroke-width="1.0" stroke-opacity=".6"/><path d="M446.7 139.0 q7.3 -10.2 14.6 0" fill="none" stroke="#b2506a" stroke-width="1.5" opacity=".7"/><circle cx="495.9" cy="143.6" r="19.8" fill="#fbf8f3"/><circle cx="506.8" cy="143.6" r="9.9" fill="#fbf8f3" stroke="#d8cabb" stroke-width="0.8" opacity=".95"/><circle cx="502.7" cy="152.1" r="9.9" fill="#fbf8f3" stroke="#d8cabb" stroke-width="0.8" opacity=".95"/><circle cx="493.5" cy="154.2" r="9.9" fill="#fbf8f3" stroke="#d8cabb" stroke-width="0.8" opacity=".95"/><circle cx="486.1" cy="148.4" r="9.9" fill="#fbf8f3" stroke="#d8cabb" stroke-width="0.8" opacity=".95"/><circle cx="486.1" cy="138.9" r="9.9" fill="#fbf8f3" stroke="#d8cabb" stroke-width="0.8" opacity=".95"/><circle cx="493.5" cy="133.0" r="9.9" fill="#fbf8f3" stroke="#d8cabb" stroke-width="0.8" opacity=".95"/><circle cx="502.7" cy="135.1" r="9.9" fill="#fbf8f3" stroke="#d8cabb" stroke-width="0.8" opacity=".95"/><circle cx="495.9" cy="143.6" r="12.3" fill="#ffffff" stroke="#d8cabb" stroke-width="0.7" stroke-opacity=".6"/><circle cx="496.9" cy="142.8" r="8.9" fill="#fbf8f3" stroke="#d8cabb" stroke-width="0.7" stroke-opacity=".6"/><circle cx="497.9" cy="142.0" r="5.9" fill="#ffffff" stroke="#d8cabb" stroke-width="0.7" stroke-opacity=".6"/><circle cx="498.9" cy="141.3" r="3.2" fill="#d8cabb" stroke="#d8cabb" stroke-width="0.7" stroke-opacity=".6"/><path d="M491.0 143.6 q4.9 -6.9 9.9 0" fill="none" stroke="#d8cabb" stroke-width="1.0" opacity=".7"/><circle cx="464.6" cy="174.9" r="36.0" fill="#fbf8f3"/><circle cx="484.4" cy="174.9" r="18.0" fill="#fbf8f3" stroke="#d8cabb" stroke-width="1.4" opacity=".95"/><circle cx="476.9" cy="190.4" r="18.0" fill="#fbf8f3" stroke="#d8cabb" stroke-width="1.4" opacity=".95"/><circle cx="460.2" cy="194.2" r="18.0" fill="#fbf8f3" stroke="#d8cabb" stroke-width="1.4" opacity=".95"/><circle cx="446.8" cy="183.5" r="18.0" fill="#fbf8f3" stroke="#d8cabb" stroke-width="1.4" opacity=".95"/><circle cx="446.8" cy="166.3" r="18.0" fill="#fbf8f3" stroke="#d8cabb" stroke-width="1.4" opacity=".95"/><circle cx="460.2" cy="155.6" r="18.0" fill="#fbf8f3" stroke="#d8cabb" stroke-width="1.4" opacity=".95"/><circle cx="476.9" cy="159.5" r="18.0" fill="#fbf8f3" stroke="#d8cabb" stroke-width="1.4" opacity=".95"/><circle cx="464.6" cy="174.9" r="22.3" fill="#ffffff" stroke="#d8cabb" stroke-width="1.3" stroke-opacity=".6"/><circle cx="466.4" cy="173.5" r="16.2" fill="#fbf8f3" stroke="#d8cabb" stroke-width="1.3" stroke-opacity=".6"/><circle cx="468.2" cy="172.0" r="10.8" fill="#ffffff" stroke="#d8cabb" stroke-width="1.3" stroke-opacity=".6"/><circle cx="470.0" cy="170.6" r="5.8" fill="#d8cabb" stroke="#d8cabb" stroke-width="1.3" stroke-opacity=".6"/><path d="M455.6 174.9 q9.0 -12.6 18.0 0" fill="none" stroke="#d8cabb" stroke-width="1.8" opacity=".7"/><circle cx="426.0" cy="186.4" r="26.3" fill="#ea8fa5"/><circle cx="440.5" cy="186.4" r="13.2" fill="#ea8fa5" stroke="#b2506a" stroke-width="1.1" opacity=".95"/><circle cx="435.0" cy="197.7" r="13.2" fill="#ea8fa5" stroke="#b2506a" stroke-width="1.1" opacity=".95"/><circle cx="422.8" cy="200.5" r="13.2" fill="#ea8fa5" stroke="#b2506a" stroke-width="1.1" opacity=".95"/><circle cx="412.9" cy="192.7" r="13.2" fill="#ea8fa5" stroke="#b2506a" stroke-width="1.1" opacity=".95"/><circle cx="412.9" cy="180.1" r="13.2" fill="#ea8fa5" stroke="#b2506a" stroke-width="1.1" opacity=".95"/><circle cx="422.8" cy="172.3" r="13.2" fill="#ea8fa5" stroke="#b2506a" stroke-width="1.1" opacity=".95"/><circle cx="435.0" cy="175.1" r="13.2" fill="#ea8fa5" stroke="#b2506a" stroke-width="1.1" opacity=".95"/><circle cx="426.0" cy="186.4" r="16.3" fill="#f7c3cf" stroke="#b2506a" stroke-width="0.9" stroke-opacity=".6"/><circle cx="427.3" cy="185.4" r="11.8" fill="#ea8fa5" stroke="#b2506a" stroke-width="0.9" stroke-opacity=".6"/><circle cx="428.6" cy="184.3" r="7.9" fill="#f7c3cf" stroke="#b2506a" stroke-width="0.9" stroke-opacity=".6"/><circle cx="429.9" cy="183.3" r="4.2" fill="#b2506a" stroke="#b2506a" stroke-width="0.9" stroke-opacity=".6"/><path d="M419.4 186.4 q6.6 -9.2 13.2 0" fill="none" stroke="#b2506a" stroke-width="1.3" opacity=".7"/><ellipse cx="533.9" cy="314.0" rx="20.2" ry="8.5" fill="#6f8a5e" transform="rotate(332 533.9 314.0)"/><line x1="517.8" y1="322.5" x2="549.9" y2="305.5" stroke="#4f6843" stroke-width="1.0" opacity=".6"/><ellipse cx="524.7" cy="337.5" rx="20.2" ry="8.5" fill="#6f8a5e" transform="rotate(42 524.7 337.5)"/><line x1="511.1" y1="325.4" x2="538.2" y2="349.6" stroke="#4f6843" stroke-width="1.0" opacity=".6"/><ellipse cx="487.0" cy="368.5" rx="27.6" ry="11.6" fill="#6f8a5e" transform="rotate(316 487.0 368.5)"/><line x1="469.2" y1="385.7" x2="504.9" y2="351.3" stroke="#4f6843" stroke-width="1.4" opacity=".6"/><ellipse cx="471.1" cy="372.0" rx="27.6" ry="11.6" fill="#6f8a5e" transform="rotate(73 471.1 372.0)"/><line x1="463.7" y1="348.3" x2="478.6" y2="395.7" stroke="#4f6843" stroke-width="1.4" opacity=".6"/><ellipse cx="489.5" cy="324.9" rx="23.1" ry="9.7" fill="#6f8a5e" transform="rotate(321 489.5 324.9)"/><line x1="473.3" y1="338.0" x2="505.7" y2="311.8" stroke="#4f6843" stroke-width="1.2" opacity=".6"/><ellipse cx="494.7" cy="329.2" rx="23.1" ry="9.7" fill="#6f8a5e" transform="rotate(190 494.7 329.2)"/><line x1="515.3" y1="332.6" x2="474.2" y2="325.8" stroke="#4f6843" stroke-width="1.2" opacity=".6"/><ellipse cx="513.9" cy="303.1" rx="17.3" ry="7.3" fill="#6f8a5e" transform="rotate(214 513.9 303.1)"/><line x1="526.8" y1="311.8" x2="501.0" y2="294.4" stroke="#4f6843" stroke-width="0.9" opacity=".6"/><ellipse cx="531.6" cy="322.2" rx="17.3" ry="7.3" fill="#6f8a5e" transform="rotate(219 531.6 322.2)"/><line x1="543.7" y1="332.0" x2="519.5" y2="312.5" stroke="#4f6843" stroke-width="0.9" opacity=".6"/><ellipse cx="493.8" cy="330.1" rx="20.4" ry="8.5" fill="#6f8a5e" transform="rotate(276 493.8 330.1)"/><line x1="491.8" y1="348.3" x2="495.9" y2="311.9" stroke="#4f6843" stroke-width="1.0" opacity=".6"/><ellipse cx="511.2" cy="320.6" rx="20.4" ry="8.5" fill="#6f8a5e" transform="rotate(302 511.2 320.6)"/><line x1="501.6" y1="336.2" x2="520.8" y2="305.0" stroke="#4f6843" stroke-width="1.0" opacity=".6"/><circle cx="532.1" cy="313.8" r="19.2" fill="#fbf8f3"/><circle cx="542.6" cy="313.8" r="9.6" fill="#fbf8f3" stroke="#d8cabb" stroke-width="0.8" opacity=".95"/><circle cx="538.6" cy="322.1" r="9.6" fill="#fbf8f3" stroke="#d8cabb" stroke-width="0.8" opacity=".95"/><circle cx="529.7" cy="324.1" r="9.6" fill="#fbf8f3" stroke="#d8cabb" stroke-width="0.8" opacity=".95"/><circle cx="522.5" cy="318.4" r="9.6" fill="#fbf8f3" stroke="#d8cabb" stroke-width="0.8" opacity=".95"/><circle cx="522.5" cy="309.3" r="9.6" fill="#fbf8f3" stroke="#d8cabb" stroke-width="0.8" opacity=".95"/><circle cx="529.7" cy="303.5" r="9.6" fill="#fbf8f3" stroke="#d8cabb" stroke-width="0.8" opacity=".95"/><circle cx="538.6" cy="305.6" r="9.6" fill="#fbf8f3" stroke="#d8cabb" stroke-width="0.8" opacity=".95"/><circle cx="532.1" cy="313.8" r="11.9" fill="#ffffff" stroke="#d8cabb" stroke-width="0.7" stroke-opacity=".6"/><circle cx="533.0" cy="313.1" r="8.6" fill="#fbf8f3" stroke="#d8cabb" stroke-width="0.7" stroke-opacity=".6"/><circle cx="534.0" cy="312.3" r="5.8" fill="#ffffff" stroke="#d8cabb" stroke-width="0.7" stroke-opacity=".6"/><circle cx="534.9" cy="311.5" r="3.1" fill="#d8cabb" stroke="#d8cabb" stroke-width="0.7" stroke-opacity=".6"/><path d="M527.3 313.8 q4.8 -6.7 9.6 0" fill="none" stroke="#d8cabb" stroke-width="1.0" opacity=".7"/><circle cx="546.5" cy="327.4" r="22.4" fill="#f3c1c4"/><circle cx="558.9" cy="327.4" r="11.2" fill="#f3c1c4" stroke="#c9787f" stroke-width="0.9" opacity=".95"/><circle cx="554.2" cy="337.0" r="11.2" fill="#f3c1c4" stroke="#c9787f" stroke-width="0.9" opacity=".95"/><circle cx="543.8" cy="339.4" r="11.2" fill="#f3c1c4" stroke="#c9787f" stroke-width="0.9" opacity=".95"/><circle cx="535.4" cy="332.7" r="11.2" fill="#f3c1c4" stroke="#c9787f" stroke-width="0.9" opacity=".95"/><circle cx="535.4" cy="322.0" r="11.2" fill="#f3c1c4" stroke="#c9787f" stroke-width="0.9" opacity=".95"/><circle cx="543.8" cy="315.3" r="11.2" fill="#f3c1c4" stroke="#c9787f" stroke-width="0.9" opacity=".95"/><circle cx="554.2" cy="317.7" r="11.2" fill="#f3c1c4" stroke="#c9787f" stroke-width="0.9" opacity=".95"/><circle cx="546.5" cy="327.4" r="13.9" fill="#fbe1e1" stroke="#c9787f" stroke-width="0.8" stroke-opacity=".6"/><circle cx="547.6" cy="326.5" r="10.1" fill="#f3c1c4" stroke="#c9787f" stroke-width="0.8" stroke-opacity=".6"/><circle cx="548.8" cy="325.6" r="6.7" fill="#fbe1e1" stroke="#c9787f" stroke-width="0.8" stroke-opacity=".6"/><circle cx="549.9" cy="324.7" r="3.6" fill="#c9787f" stroke="#c9787f" stroke-width="0.8" stroke-opacity=".6"/><path d="M540.9 327.4 q5.6 -7.9 11.2 0" fill="none" stroke="#c9787f" stroke-width="1.1" opacity=".7"/><circle cx="480.7" cy="330.1" r="25.7" fill="#f3c1c4"/><circle cx="494.8" cy="330.1" r="12.9" fill="#f3c1c4" stroke="#c9787f" stroke-width="1.0" opacity=".95"/><circle cx="489.5" cy="341.1" r="12.9" fill="#f3c1c4" stroke="#c9787f" stroke-width="1.0" opacity=".95"/><circle cx="477.5" cy="343.9" r="12.9" fill="#f3c1c4" stroke="#c9787f" stroke-width="1.0" opacity=".95"/><circle cx="467.9" cy="336.2" r="12.9" fill="#f3c1c4" stroke="#c9787f" stroke-width="1.0" opacity=".95"/><circle cx="467.9" cy="323.9" r="12.9" fill="#f3c1c4" stroke="#c9787f" stroke-width="1.0" opacity=".95"/><circle cx="477.5" cy="316.3" r="12.9" fill="#f3c1c4" stroke="#c9787f" stroke-width="1.0" opacity=".95"/><circle cx="489.5" cy="319.0" r="12.9" fill="#f3c1c4" stroke="#c9787f" stroke-width="1.0" opacity=".95"/><circle cx="480.7" cy="330.1" r="15.9" fill="#fbe1e1" stroke="#c9787f" stroke-width="0.9" stroke-opacity=".6"/><circle cx="481.9" cy="329.1" r="11.6" fill="#f3c1c4" stroke="#c9787f" stroke-width="0.9" stroke-opacity=".6"/><circle cx="483.2" cy="328.0" r="7.7" fill="#fbe1e1" stroke="#c9787f" stroke-width="0.9" stroke-opacity=".6"/><circle cx="484.5" cy="327.0" r="4.1" fill="#c9787f" stroke="#c9787f" stroke-width="0.9" stroke-opacity=".6"/><path d="M474.2 330.1 q6.4 -9.0 12.9 0" fill="none" stroke="#c9787f" stroke-width="1.3" opacity=".7"/><circle cx="510.2" cy="333.8" r="22.6" fill="#f3c1c4"/><circle cx="522.6" cy="333.8" r="11.3" fill="#f3c1c4" stroke="#c9787f" stroke-width="0.9" opacity=".95"/><circle cx="517.9" cy="343.6" r="11.3" fill="#f3c1c4" stroke="#c9787f" stroke-width="0.9" opacity=".95"/><circle cx="507.4" cy="346.0" r="11.3" fill="#f3c1c4" stroke="#c9787f" stroke-width="0.9" opacity=".95"/><circle cx="499.0" cy="339.2" r="11.3" fill="#f3c1c4" stroke="#c9787f" stroke-width="0.9" opacity=".95"/><circle cx="499.0" cy="328.5" r="11.3" fill="#f3c1c4" stroke="#c9787f" stroke-width="0.9" opacity=".95"/><circle cx="507.4" cy="321.7" r="11.3" fill="#f3c1c4" stroke="#c9787f" stroke-width="0.9" opacity=".95"/><circle cx="517.9" cy="324.1" r="11.3" fill="#f3c1c4" stroke="#c9787f" stroke-width="0.9" opacity=".95"/><circle cx="510.2" cy="333.8" r="14.0" fill="#fbe1e1" stroke="#c9787f" stroke-width="0.8" stroke-opacity=".6"/><circle cx="511.3" cy="332.9" r="10.2" fill="#f3c1c4" stroke="#c9787f" stroke-width="0.8" stroke-opacity=".6"/><circle cx="512.4" cy="332.0" r="6.8" fill="#fbe1e1" stroke="#c9787f" stroke-width="0.8" stroke-opacity=".6"/><circle cx="513.6" cy="331.1" r="3.6" fill="#c9787f" stroke="#c9787f" stroke-width="0.8" stroke-opacity=".6"/><path d="M504.5 333.8 q5.7 -7.9 11.3 0" fill="none" stroke="#c9787f" stroke-width="1.1" opacity=".7"/><circle cx="468.0" cy="358.1" r="30.6" fill="#fbf8f3"/><circle cx="484.9" cy="358.1" r="15.3" fill="#fbf8f3" stroke="#d8cabb" stroke-width="1.2" opacity=".95"/><circle cx="478.5" cy="371.3" r="15.3" fill="#fbf8f3" stroke="#d8cabb" stroke-width="1.2" opacity=".95"/><circle cx="464.3" cy="374.5" r="15.3" fill="#fbf8f3" stroke="#d8cabb" stroke-width="1.2" opacity=".95"/><circle cx="452.8" cy="365.4" r="15.3" fill="#fbf8f3" stroke="#d8cabb" stroke-width="1.2" opacity=".95"/><circle cx="452.8" cy="350.8" r="15.3" fill="#fbf8f3" stroke="#d8cabb" stroke-width="1.2" opacity=".95"/><circle cx="464.3" cy="341.7" r="15.3" fill="#fbf8f3" stroke="#d8cabb" stroke-width="1.2" opacity=".95"/><circle cx="478.5" cy="344.9" r="15.3" fill="#fbf8f3" stroke="#d8cabb" stroke-width="1.2" opacity=".95"/><circle cx="468.0" cy="358.1" r="19.0" fill="#ffffff" stroke="#d8cabb" stroke-width="1.1" stroke-opacity=".6"/><circle cx="469.6" cy="356.9" r="13.8" fill="#fbf8f3" stroke="#d8cabb" stroke-width="1.1" stroke-opacity=".6"/><circle cx="471.1" cy="355.6" r="9.2" fill="#ffffff" stroke="#d8cabb" stroke-width="1.1" stroke-opacity=".6"/><circle cx="472.6" cy="354.4" r="4.9" fill="#d8cabb" stroke="#d8cabb" stroke-width="1.1" stroke-opacity=".6"/><path d="M460.4 358.1 q7.7 -10.7 15.3 0" fill="none" stroke="#d8cabb" stroke-width="1.5" opacity=".7"/><ellipse cx="309.8" cy="519.1" rx="21.0" ry="8.8" fill="#6f8a5e" transform="rotate(172 309.8 519.1)"/><line x1="328.5" y1="516.5" x2="291.0" y2="521.6" stroke="#4f6843" stroke-width="1.0" opacity=".6"/><ellipse cx="285.6" cy="508.7" rx="21.0" ry="8.8" fill="#6f8a5e" transform="rotate(134 285.6 508.7)"/><line x1="298.6" y1="495.0" x2="272.5" y2="522.3" stroke="#4f6843" stroke-width="1.0" opacity=".6"/><ellipse cx="221.7" cy="555.7" rx="19.3" ry="8.1" fill="#6f8a5e" transform="rotate(118 221.7 555.7)"/><line x1="229.7" y1="540.3" x2="213.7" y2="571.1" stroke="#4f6843" stroke-width="1.0" opacity=".6"/><ellipse cx="251.6" cy="544.1" rx="19.3" ry="8.1" fill="#6f8a5e" transform="rotate(351 251.6 544.1)"/><line x1="234.5" y1="547.0" x2="268.8" y2="541.3" stroke="#4f6843" stroke-width="1.0" opacity=".6"/><ellipse cx="288.8" cy="515.3" rx="16.0" ry="6.7" fill="#6f8a5e" transform="rotate(233 288.8 515.3)"/><line x1="297.4" y1="526.8" x2="280.3" y2="503.8" stroke="#4f6843" stroke-width="0.8" opacity=".6"/><ellipse cx="293.0" cy="514.1" rx="16.0" ry="6.7" fill="#6f8a5e" transform="rotate(283 293.0 514.1)"/><line x1="289.7" y1="528.1" x2="296.2" y2="500.1" stroke="#4f6843" stroke-width="0.8" opacity=".6"/><ellipse cx="306.0" cy="521.6" rx="25.9" ry="10.9" fill="#6f8a5e" transform="rotate(187 306.0 521.6)"/><line x1="329.2" y1="524.6" x2="282.9" y2="518.6" stroke="#4f6843" stroke-width="1.3" opacity=".6"/><ellipse cx="295.1" cy="513.5" rx="25.9" ry="10.9" fill="#6f8a5e" transform="rotate(83 295.1 513.5)"/><line x1="292.1" y1="490.4" x2="298.1" y2="536.7" stroke="#4f6843" stroke-width="1.3" opacity=".6"/><ellipse cx="295.4" cy="548.3" rx="15.8" ry="6.7" fill="#6f8a5e" transform="rotate(1 295.4 548.3)"/><line x1="281.1" y1="548.2" x2="309.7" y2="548.5" stroke="#4f6843" stroke-width="0.8" opacity=".6"/><ellipse cx="290.9" cy="549.3" rx="15.8" ry="6.7" fill="#6f8a5e" transform="rotate(196 290.9 549.3)"/><line x1="304.6" y1="553.2" x2="277.2" y2="545.4" stroke="#4f6843" stroke-width="0.8" opacity=".6"/><circle cx="303.4" cy="507.0" r="23.3" fill="#f3c1c4"/><circle cx="316.2" cy="507.0" r="11.7" fill="#f3c1c4" stroke="#c9787f" stroke-width="0.9" opacity=".95"/><circle cx="311.4" cy="517.1" r="11.7" fill="#f3c1c4" stroke="#c9787f" stroke-width="0.9" opacity=".95"/><circle cx="300.5" cy="519.5" r="11.7" fill="#f3c1c4" stroke="#c9787f" stroke-width="0.9" opacity=".95"/><circle cx="291.8" cy="512.6" r="11.7" fill="#f3c1c4" stroke="#c9787f" stroke-width="0.9" opacity=".95"/><circle cx="291.8" cy="501.5" r="11.7" fill="#f3c1c4" stroke="#c9787f" stroke-width="0.9" opacity=".95"/><circle cx="300.5" cy="494.5" r="11.7" fill="#f3c1c4" stroke="#c9787f" stroke-width="0.9" opacity=".95"/><circle cx="311.4" cy="497.0" r="11.7" fill="#f3c1c4" stroke="#c9787f" stroke-width="0.9" opacity=".95"/><circle cx="303.4" cy="507.0" r="14.5" fill="#fbe1e1" stroke="#c9787f" stroke-width="0.8" stroke-opacity=".6"/><circle cx="304.5" cy="506.1" r="10.5" fill="#f3c1c4" stroke="#c9787f" stroke-width="0.8" stroke-opacity=".6"/><circle cx="305.7" cy="505.2" r="7.0" fill="#fbe1e1" stroke="#c9787f" stroke-width="0.8" stroke-opacity=".6"/><circle cx="306.9" cy="504.2" r="3.7" fill="#c9787f" stroke="#c9787f" stroke-width="0.8" stroke-opacity=".6"/><path d="M297.5 507.0 q5.8 -8.2 11.7 0" fill="none" stroke="#c9787f" stroke-width="1.2" opacity=".7"/><circle cx="300.2" cy="520.7" r="28.8" fill="#f3c1c4"/><circle cx="316.1" cy="520.7" r="14.4" fill="#f3c1c4" stroke="#c9787f" stroke-width="1.2" opacity=".95"/><circle cx="310.1" cy="533.1" r="14.4" fill="#f3c1c4" stroke="#c9787f" stroke-width="1.2" opacity=".95"/><circle cx="296.7" cy="536.1" r="14.4" fill="#f3c1c4" stroke="#c9787f" stroke-width="1.2" opacity=".95"/><circle cx="286.0" cy="527.6" r="14.4" fill="#f3c1c4" stroke="#c9787f" stroke-width="1.2" opacity=".95"/><circle cx="286.0" cy="513.8" r="14.4" fill="#f3c1c4" stroke="#c9787f" stroke-width="1.2" opacity=".95"/><circle cx="296.7" cy="505.2" r="14.4" fill="#f3c1c4" stroke="#c9787f" stroke-width="1.2" opacity=".95"/><circle cx="310.1" cy="508.3" r="14.4" fill="#f3c1c4" stroke="#c9787f" stroke-width="1.2" opacity=".95"/><circle cx="300.2" cy="520.7" r="17.9" fill="#fbe1e1" stroke="#c9787f" stroke-width="1.0" stroke-opacity=".6"/><circle cx="301.7" cy="519.5" r="13.0" fill="#f3c1c4" stroke="#c9787f" stroke-width="1.0" stroke-opacity=".6"/><circle cx="303.1" cy="518.4" r="8.6" fill="#fbe1e1" stroke="#c9787f" stroke-width="1.0" stroke-opacity=".6"/><circle cx="304.5" cy="517.2" r="4.6" fill="#c9787f" stroke="#c9787f" stroke-width="1.0" stroke-opacity=".6"/><path d="M293.0 520.7 q7.2 -10.1 14.4 0" fill="none" stroke="#c9787f" stroke-width="1.4" opacity=".7"/><circle cx="306.4" cy="522.3" r="17.7" fill="#fbf8f3"/><circle cx="316.1" cy="522.3" r="8.9" fill="#fbf8f3" stroke="#d8cabb" stroke-width="0.7" opacity=".95"/><circle cx="312.5" cy="530.0" r="8.9" fill="#fbf8f3" stroke="#d8cabb" stroke-width="0.7" opacity=".95"/><circle cx="304.2" cy="531.8" r="8.9" fill="#fbf8f3" stroke="#d8cabb" stroke-width="0.7" opacity=".95"/><circle cx="297.6" cy="526.6" r="8.9" fill="#fbf8f3" stroke="#d8cabb" stroke-width="0.7" opacity=".95"/><circle cx="297.6" cy="518.1" r="8.9" fill="#fbf8f3" stroke="#d8cabb" stroke-width="0.7" opacity=".95"/><circle cx="304.2" cy="512.8" r="8.9" fill="#fbf8f3" stroke="#d8cabb" stroke-width="0.7" opacity=".95"/><circle cx="312.5" cy="514.7" r="8.9" fill="#fbf8f3" stroke="#d8cabb" stroke-width="0.7" opacity=".95"/><circle cx="306.4" cy="522.3" r="11.0" fill="#ffffff" stroke="#d8cabb" stroke-width="0.6" stroke-opacity=".6"/><circle cx="307.3" cy="521.6" r="8.0" fill="#fbf8f3" stroke="#d8cabb" stroke-width="0.6" stroke-opacity=".6"/><circle cx="308.2" cy="520.9" r="5.3" fill="#ffffff" stroke="#d8cabb" stroke-width="0.6" stroke-opacity=".6"/><circle cx="309.1" cy="520.2" r="2.8" fill="#d8cabb" stroke="#d8cabb" stroke-width="0.6" stroke-opacity=".6"/><path d="M302.0 522.3 q4.4 -6.2 8.9 0" fill="none" stroke="#d8cabb" stroke-width="0.9" opacity=".7"/><circle cx="306.6" cy="540.6" r="17.6" fill="#ea8fa5"/><circle cx="316.3" cy="540.6" r="8.8" fill="#ea8fa5" stroke="#b2506a" stroke-width="0.7" opacity=".95"/><circle cx="312.7" cy="548.2" r="8.8" fill="#ea8fa5" stroke="#b2506a" stroke-width="0.7" opacity=".95"/><circle cx="304.5" cy="550.1" r="8.8" fill="#ea8fa5" stroke="#b2506a" stroke-width="0.7" opacity=".95"/><circle cx="297.9" cy="544.8" r="8.8" fill="#ea8fa5" stroke="#b2506a" stroke-width="0.7" opacity=".95"/><circle cx="297.9" cy="536.4" r="8.8" fill="#ea8fa5" stroke="#b2506a" stroke-width="0.7" opacity=".95"/><circle cx="304.5" cy="531.2" r="8.8" fill="#ea8fa5" stroke="#b2506a" stroke-width="0.7" opacity=".95"/><circle cx="312.7" cy="533.1" r="8.8" fill="#ea8fa5" stroke="#b2506a" stroke-width="0.7" opacity=".95"/><circle cx="306.6" cy="540.6" r="10.9" fill="#f7c3cf" stroke="#b2506a" stroke-width="0.6" stroke-opacity=".6"/><circle cx="307.5" cy="539.9" r="7.9" fill="#ea8fa5" stroke="#b2506a" stroke-width="0.6" stroke-opacity=".6"/><circle cx="308.4" cy="539.2" r="5.3" fill="#f7c3cf" stroke="#b2506a" stroke-width="0.6" stroke-opacity=".6"/><circle cx="309.3" cy="538.5" r="2.8" fill="#b2506a" stroke="#b2506a" stroke-width="0.6" stroke-opacity=".6"/><path d="M302.2 540.6 q4.4 -6.2 8.8 0" fill="none" stroke="#b2506a" stroke-width="0.9" opacity=".7"/><circle cx="236.2" cy="550.4" r="21.5" fill="#f3c1c4"/><circle cx="248.0" cy="550.4" r="10.7" fill="#f3c1c4" stroke="#c9787f" stroke-width="0.9" opacity=".95"/><circle cx="243.5" cy="559.6" r="10.7" fill="#f3c1c4" stroke="#c9787f" stroke-width="0.9" opacity=".95"/><circle cx="233.6" cy="561.9" r="10.7" fill="#f3c1c4" stroke="#c9787f" stroke-width="0.9" opacity=".95"/><circle cx="225.5" cy="555.5" r="10.7" fill="#f3c1c4" stroke="#c9787f" stroke-width="0.9" opacity=".95"/><circle cx="225.5" cy="545.2" r="10.7" fill="#f3c1c4" stroke="#c9787f" stroke-width="0.9" opacity=".95"/><circle cx="233.6" cy="538.9" r="10.7" fill="#f3c1c4" stroke="#c9787f" stroke-width="0.9" opacity=".95"/><circle cx="243.5" cy="541.1" r="10.7" fill="#f3c1c4" stroke="#c9787f" stroke-width="0.9" opacity=".95"/><circle cx="236.2" cy="550.4" r="13.3" fill="#fbe1e1" stroke="#c9787f" stroke-width="0.8" stroke-opacity=".6"/><circle cx="237.3" cy="549.5" r="9.7" fill="#f3c1c4" stroke="#c9787f" stroke-width="0.8" stroke-opacity=".6"/><circle cx="238.3" cy="548.6" r="6.4" fill="#fbe1e1" stroke="#c9787f" stroke-width="0.8" stroke-opacity=".6"/><circle cx="239.4" cy="547.8" r="3.4" fill="#c9787f" stroke="#c9787f" stroke-width="0.8" stroke-opacity=".6"/><path d="M230.8 550.4 q5.4 -7.5 10.7 0" fill="none" stroke="#c9787f" stroke-width="1.1" opacity=".7"/><ellipse cx="527.9" cy="648.7" rx="19.1" ry="8.0" fill="#6f8a5e" transform="rotate(65 527.9 648.7)"/><line x1="520.5" y1="633.1" x2="535.2" y2="664.2" stroke="#4f6843" stroke-width="1.0" opacity=".6"/><ellipse cx="538.6" cy="633.1" rx="19.1" ry="8.0" fill="#6f8a5e" transform="rotate(108 538.6 633.1)"/><line x1="543.9" y1="616.8" x2="533.2" y2="649.5" stroke="#4f6843" stroke-width="1.0" opacity=".6"/><ellipse cx="480.9" cy="606.1" rx="17.7" ry="7.4" fill="#6f8a5e" transform="rotate(342 480.9 606.1)"/><line x1="465.8" y1="611.1" x2="496.1" y2="601.1" stroke="#4f6843" stroke-width="0.9" opacity=".6"/><ellipse cx="512.7" cy="624.5" rx="17.7" ry="7.4" fill="#6f8a5e" transform="rotate(291 512.7 624.5)"/><line x1="507.1" y1="639.5" x2="518.3" y2="609.6" stroke="#4f6843" stroke-width="0.9" opacity=".6"/><ellipse cx="382.2" cy="604.8" rx="23.6" ry="9.9" fill="#6f8a5e" transform="rotate(210 382.2 604.8)"/><line x1="400.6" y1="615.5" x2="363.9" y2="594.1" stroke="#4f6843" stroke-width="1.2" opacity=".6"/><ellipse cx="358.2" cy="617.9" rx="23.6" ry="9.9" fill="#6f8a5e" transform="rotate(338 358.2 617.9)"/><line x1="338.5" y1="625.9" x2="377.8" y2="609.8" stroke="#4f6843" stroke-width="1.2" opacity=".6"/><ellipse cx="335.6" cy="563.5" rx="14.5" ry="6.1" fill="#6f8a5e" transform="rotate(42 335.6 563.5)"/><line x1="325.9" y1="554.7" x2="345.3" y2="572.2" stroke="#4f6843" stroke-width="0.8" opacity=".6"/><ellipse cx="332.1" cy="557.8" rx="14.5" ry="6.1" fill="#6f8a5e" transform="rotate(268 332.1 557.8)"/><line x1="332.5" y1="570.9" x2="331.7" y2="544.7" stroke="#4f6843" stroke-width="0.8" opacity=".6"/><ellipse cx="343.4" cy="659.2" rx="17.0" ry="7.1" fill="#6f8a5e" transform="rotate(109 343.4 659.2)"/><line x1="348.3" y1="644.8" x2="338.4" y2="673.7" stroke="#4f6843" stroke-width="0.8" opacity=".6"/><ellipse cx="355.0" cy="649.6" rx="17.0" ry="7.1" fill="#6f8a5e" transform="rotate(216 355.0 649.6)"/><line x1="367.5" y1="658.5" x2="342.6" y2="640.7" stroke="#4f6843" stroke-width="0.8" opacity=".6"/><ellipse cx="521.4" cy="630.9" rx="22.5" ry="9.4" fill="#6f8a5e" transform="rotate(111 521.4 630.9)"/><line x1="528.8" y1="612.1" x2="514.0" y2="649.7" stroke="#4f6843" stroke-width="1.1" opacity=".6"/><ellipse cx="488.1" cy="619.6" rx="22.5" ry="9.4" fill="#6f8a5e" transform="rotate(226 488.1 619.6)"/><line x1="502.3" y1="634.1" x2="474.0" y2="605.1" stroke="#4f6843" stroke-width="1.1" opacity=".6"/><circle cx="327.2" cy="554.4" r="16.1" fill="#fbf8f3"/><circle cx="336.0" cy="554.4" r="8.1" fill="#fbf8f3" stroke="#d8cabb" stroke-width="0.6" opacity=".95"/><circle cx="332.7" cy="561.3" r="8.1" fill="#fbf8f3" stroke="#d8cabb" stroke-width="0.6" opacity=".95"/><circle cx="325.2" cy="563.1" r="8.1" fill="#fbf8f3" stroke="#d8cabb" stroke-width="0.6" opacity=".95"/><circle cx="319.2" cy="558.3" r="8.1" fill="#fbf8f3" stroke="#d8cabb" stroke-width="0.6" opacity=".95"/><circle cx="319.2" cy="550.6" r="8.1" fill="#fbf8f3" stroke="#d8cabb" stroke-width="0.6" opacity=".95"/><circle cx="325.2" cy="545.8" r="8.1" fill="#fbf8f3" stroke="#d8cabb" stroke-width="0.6" opacity=".95"/><circle cx="332.7" cy="547.5" r="8.1" fill="#fbf8f3" stroke="#d8cabb" stroke-width="0.6" opacity=".95"/><circle cx="327.2" cy="554.4" r="10.0" fill="#ffffff" stroke="#d8cabb" stroke-width="0.6" stroke-opacity=".6"/><circle cx="328.0" cy="553.8" r="7.3" fill="#fbf8f3" stroke="#d8cabb" stroke-width="0.6" stroke-opacity=".6"/><circle cx="328.8" cy="553.1" r="4.8" fill="#ffffff" stroke="#d8cabb" stroke-width="0.6" stroke-opacity=".6"/><circle cx="329.6" cy="552.5" r="2.6" fill="#d8cabb" stroke="#d8cabb" stroke-width="0.6" stroke-opacity=".6"/><path d="M323.1 554.4 q4.0 -5.6 8.1 0" fill="none" stroke="#d8cabb" stroke-width="0.8" opacity=".7"/><circle cx="358.4" cy="615.5" r="26.2" fill="#f3c1c4"/><circle cx="372.9" cy="615.5" r="13.1" fill="#f3c1c4" stroke="#c9787f" stroke-width="1.0" opacity=".95"/><circle cx="367.4" cy="626.8" r="13.1" fill="#f3c1c4" stroke="#c9787f" stroke-width="1.0" opacity=".95"/><circle cx="355.2" cy="629.6" r="13.1" fill="#f3c1c4" stroke="#c9787f" stroke-width="1.0" opacity=".95"/><circle cx="345.4" cy="621.8" r="13.1" fill="#f3c1c4" stroke="#c9787f" stroke-width="1.0" opacity=".95"/><circle cx="345.4" cy="609.3" r="13.1" fill="#f3c1c4" stroke="#c9787f" stroke-width="1.0" opacity=".95"/><circle cx="355.2" cy="601.5" r="13.1" fill="#f3c1c4" stroke="#c9787f" stroke-width="1.0" opacity=".95"/><circle cx="367.4" cy="604.3" r="13.1" fill="#f3c1c4" stroke="#c9787f" stroke-width="1.0" opacity=".95"/><circle cx="358.4" cy="615.5" r="16.3" fill="#fbe1e1" stroke="#c9787f" stroke-width="0.9" stroke-opacity=".6"/><circle cx="359.8" cy="614.5" r="11.8" fill="#f3c1c4" stroke="#c9787f" stroke-width="0.9" stroke-opacity=".6"/><circle cx="361.1" cy="613.4" r="7.9" fill="#fbe1e1" stroke="#c9787f" stroke-width="0.9" stroke-opacity=".6"/><circle cx="362.4" cy="612.4" r="4.2" fill="#c9787f" stroke="#c9787f" stroke-width="0.9" stroke-opacity=".6"/><path d="M351.9 615.5 q6.6 -9.2 13.1 0" fill="none" stroke="#c9787f" stroke-width="1.3" opacity=".7"/><circle cx="499.7" cy="617.4" r="19.7" fill="#ea8fa5"/><circle cx="510.6" cy="617.4" r="9.9" fill="#ea8fa5" stroke="#b2506a" stroke-width="0.8" opacity=".95"/><circle cx="506.5" cy="625.9" r="9.9" fill="#ea8fa5" stroke="#b2506a" stroke-width="0.8" opacity=".95"/><circle cx="497.3" cy="628.0" r="9.9" fill="#ea8fa5" stroke="#b2506a" stroke-width="0.8" opacity=".95"/><circle cx="490.0" cy="622.1" r="9.9" fill="#ea8fa5" stroke="#b2506a" stroke-width="0.8" opacity=".95"/><circle cx="490.0" cy="612.7" r="9.9" fill="#ea8fa5" stroke="#b2506a" stroke-width="0.8" opacity=".95"/><circle cx="497.3" cy="606.9" r="9.9" fill="#ea8fa5" stroke="#b2506a" stroke-width="0.8" opacity=".95"/><circle cx="506.5" cy="609.0" r="9.9" fill="#ea8fa5" stroke="#b2506a" stroke-width="0.8" opacity=".95"/><circle cx="499.7" cy="617.4" r="12.2" fill="#f7c3cf" stroke="#b2506a" stroke-width="0.7" stroke-opacity=".6"/><circle cx="500.7" cy="616.6" r="8.9" fill="#ea8fa5" stroke="#b2506a" stroke-width="0.7" stroke-opacity=".6"/><circle cx="501.7" cy="615.8" r="5.9" fill="#f7c3cf" stroke="#b2506a" stroke-width="0.7" stroke-opacity=".6"/><circle cx="502.7" cy="615.1" r="3.2" fill="#b2506a" stroke="#b2506a" stroke-width="0.7" stroke-opacity=".6"/><path d="M494.8 617.4 q4.9 -6.9 9.9 0" fill="none" stroke="#b2506a" stroke-width="1.0" opacity=".7"/><circle cx="501.6" cy="624.8" r="25.0" fill="#ea8fa5"/><circle cx="515.3" cy="624.8" r="12.5" fill="#ea8fa5" stroke="#b2506a" stroke-width="1.0" opacity=".95"/><circle cx="510.2" cy="635.5" r="12.5" fill="#ea8fa5" stroke="#b2506a" stroke-width="1.0" opacity=".95"/><circle cx="498.5" cy="638.2" r="12.5" fill="#ea8fa5" stroke="#b2506a" stroke-width="1.0" opacity=".95"/><circle cx="489.2" cy="630.8" r="12.5" fill="#ea8fa5" stroke="#b2506a" stroke-width="1.0" opacity=".95"/><circle cx="489.2" cy="618.8" r="12.5" fill="#ea8fa5" stroke="#b2506a" stroke-width="1.0" opacity=".95"/><circle cx="498.5" cy="611.4" r="12.5" fill="#ea8fa5" stroke="#b2506a" stroke-width="1.0" opacity=".95"/><circle cx="510.2" cy="614.0" r="12.5" fill="#ea8fa5" stroke="#b2506a" stroke-width="1.0" opacity=".95"/><circle cx="501.6" cy="624.8" r="15.5" fill="#f7c3cf" stroke="#b2506a" stroke-width="0.9" stroke-opacity=".6"/><circle cx="502.8" cy="623.8" r="11.2" fill="#ea8fa5" stroke="#b2506a" stroke-width="0.9" stroke-opacity=".6"/><circle cx="504.1" cy="622.8" r="7.5" fill="#f7c3cf" stroke="#b2506a" stroke-width="0.9" stroke-opacity=".6"/><circle cx="505.3" cy="621.8" r="4.0" fill="#b2506a" stroke="#b2506a" stroke-width="0.9" stroke-opacity=".6"/><path d="M495.3 624.8 q6.2 -8.7 12.5 0" fill="none" stroke="#b2506a" stroke-width="1.2" opacity=".7"/><circle cx="532.0" cy="637.6" r="21.2" fill="#fbf8f3"/><circle cx="543.7" cy="637.6" r="10.6" fill="#fbf8f3" stroke="#d8cabb" stroke-width="0.8" opacity=".95"/><circle cx="539.3" cy="646.7" r="10.6" fill="#fbf8f3" stroke="#d8cabb" stroke-width="0.8" opacity=".95"/><circle cx="529.4" cy="648.9" r="10.6" fill="#fbf8f3" stroke="#d8cabb" stroke-width="0.8" opacity=".95"/><circle cx="521.5" cy="642.6" r="10.6" fill="#fbf8f3" stroke="#d8cabb" stroke-width="0.8" opacity=".95"/><circle cx="521.5" cy="632.5" r="10.6" fill="#fbf8f3" stroke="#d8cabb" stroke-width="0.8" opacity=".95"/><circle cx="529.4" cy="626.2" r="10.6" fill="#fbf8f3" stroke="#d8cabb" stroke-width="0.8" opacity=".95"/><circle cx="539.3" cy="628.4" r="10.6" fill="#fbf8f3" stroke="#d8cabb" stroke-width="0.8" opacity=".95"/><circle cx="532.0" cy="637.6" r="13.2" fill="#ffffff" stroke="#d8cabb" stroke-width="0.7" stroke-opacity=".6"/><circle cx="533.1" cy="636.7" r="9.5" fill="#fbf8f3" stroke="#d8cabb" stroke-width="0.7" stroke-opacity=".6"/><circle cx="534.1" cy="635.9" r="6.4" fill="#ffffff" stroke="#d8cabb" stroke-width="0.7" stroke-opacity=".6"/><circle cx="535.2" cy="635.0" r="3.4" fill="#d8cabb" stroke="#d8cabb" stroke-width="0.7" stroke-opacity=".6"/><path d="M526.7 637.6 q5.3 -7.4 10.6 0" fill="none" stroke="#d8cabb" stroke-width="1.1" opacity=".7"/><circle cx="338.9" cy="651.7" r="18.9" fill="#fbf8f3"/><circle cx="349.3" cy="651.7" r="9.4" fill="#fbf8f3" stroke="#d8cabb" stroke-width="0.8" opacity=".95"/><circle cx="345.4" cy="659.9" r="9.4" fill="#fbf8f3" stroke="#d8cabb" stroke-width="0.8" opacity=".95"/><circle cx="336.6" cy="661.9" r="9.4" fill="#fbf8f3" stroke="#d8cabb" stroke-width="0.8" opacity=".95"/><circle cx="329.6" cy="656.2" r="9.4" fill="#fbf8f3" stroke="#d8cabb" stroke-width="0.8" opacity=".95"/><circle cx="329.6" cy="647.2" r="9.4" fill="#fbf8f3" stroke="#d8cabb" stroke-width="0.8" opacity=".95"/><circle cx="336.6" cy="641.6" r="9.4" fill="#fbf8f3" stroke="#d8cabb" stroke-width="0.8" opacity=".95"/><circle cx="345.4" cy="643.6" r="9.4" fill="#fbf8f3" stroke="#d8cabb" stroke-width="0.8" opacity=".95"/><circle cx="338.9" cy="651.7" r="11.7" fill="#ffffff" stroke="#d8cabb" stroke-width="0.7" stroke-opacity=".6"/><circle cx="339.8" cy="651.0" r="8.5" fill="#fbf8f3" stroke="#d8cabb" stroke-width="0.7" stroke-opacity=".6"/><circle cx="340.8" cy="650.2" r="5.7" fill="#ffffff" stroke="#d8cabb" stroke-width="0.7" stroke-opacity=".6"/><circle cx="341.7" cy="649.5" r="3.0" fill="#d8cabb" stroke="#d8cabb" stroke-width="0.7" stroke-opacity=".6"/><path d="M334.2 651.7 q4.7 -6.6 9.4 0" fill="none" stroke="#d8cabb" stroke-width="0.9" opacity=".7"/></g></svg>