<svg xmlns="http://www.w3.org/2000/svg" viewBox="0 0 1000 800" width="1000" height="800" preserveAspectRatio="xMidYMid slice"><defs><filter id="blur" x="-50%" y="-50%" width="200%" height="200%"><feGaussianBlur stdDeviation="14"/></filter><filter id="soft"><feGaussianBlur stdDeviation="3"/></filter><filter id="shadow" x="-20%" y="-20%" width="140%" height="160%"><feDropShadow dx="0" dy="10" stdDeviation="12" flood-color="#3a2219" flood-opacity=".28"/></filter><linearGradient id="bg" x1="0" y1="0" x2="0" y2="1"><stop offset="0" stop-color="#fbe9ea"/><stop offset="1" stop-color="#f0c9ce"/></linearGradient><linearGradient id="cakeW" x1="0" y1="0" x2="1" y2="0"><stop offset="0" stop-color="#e2d3c3"/><stop offset="0.35" stop-color="#fdf7ef"/><stop offset="0.6" stop-color="#fdf7ef"/><stop offset="1" stop-color="#e2d3c3"/></linearGradient><linearGradient id="cakeP" x1="0" y1="0" x2="1" y2="0"><stop offset="0" stop-color="#e5b9bd"/><stop offset="0.35" stop-color="#fbe3e4"/><stop offset="0.6" stop-color="#fbe3e4"/><stop offset="1" stop-color="#e5b9bd"/></linearGradient><linearGradient id="cakeB" x1="0" y1="0" x2="1" y2="0"><stop offset="0" stop-color="#9ccbdd"/><stop offset="0.35" stop-color="#d5eef7"/><stop offset="0.6" stop-color="#d5eef7"/><stop offset="1" stop-color="#9ccbdd"/></linearGradient><linearGradient id="cakeC" x1="0" y1="0" x2="1" y2="0"><stop offset="0" stop-color="#3d2014"/><stop offset="0.35" stop-color="#6d3f2a"/><stop offset="0.6" stop-color="#6d3f2a"/><stop offset="1" stop-color="#3d2014"/></linearGradient><linearGradient id="cakeS" x1="0" y1="0" x2="1" y2="0"><stop offset="0" stop-color="#e6d6c4"/><stop offset="0.35" stop-color="#fffaf2"/><stop offset="0.6" stop-color="#fffaf2"/><stop offset="1" stop-color="#e6d6c4"/></linearGradient></defs><rect width="1000" height="800" fill="url(#bg)"/><g filter="url(#blur)"><circle cx="375" cy="303" r="41" fill="#fcd4dc" opacity="0.39"/><circle cx="516" cy="706" r="26" fill="#fcd4dc" opacity="0.34"/><circle cx="490" cy="422" r="21" fill="#ffffff" opacity="0.31"/><circle cx="928" cy="556" r="46" fill="#fcd4dc" opacity="0.31"/><circle cx="30" cy="278" r="38" fill="#fcd4dc" opacity="0.52"/><circle cx="16" cy="526" r="42" fill="#ffffff" opacity="0.43"/><circle cx="936" cy="32" r="50" fill="#ffffff" opacity="0.40"/><circle cx="744" cy="98" r="45" fill="#fcd4dc" opacity="0.51"/><circle cx="473" cy="129" r="33" fill="#fcd4dc" opacity="0.49"/><circle cx="92" cy="743" r="25" fill="#fcd4dc" opacity="0.30"/><circle cx="4" cy="769" r="33" fill="#fcd4dc" opacity="0.31"/><circle cx="67" cy="361" r="33" fill="#fcd4dc" opacity="0.34"/><circle cx="519" cy="87" r="58" fill="#ffffff" opacity="0.51"/><circle cx="640" cy="620" r="46" fill="#ffffff" opacity="0.53"/><circle cx="119" cy="207" r="47" fill="#ffffff" opacity="0.39"/><circle cx="986" cy="478" r="37" fill="#ffffff" opacity="0.45"/></g><rect x="0" y="700" width="1000" height="100" fill="#f6e2e2"/><rect x="0" y="700" width="1000" height="6" fill="#fff" opacity=".6"/><g filter="url(#shadow)"><rect x="471" y="650" width="59" height="118" fill="#b9aea6"/><ellipse cx="500" cy="768" rx="118" ry="21" fill="#b9aea6"/><ellipse cx="500" cy="650" rx="252" ry="29" fill="#efe9e4"/><ellipse cx="500" cy="658" rx="252" ry="25" fill="none" stroke="#b9aea6" stroke-width="2"/><rect x="300.0" y="326.0" width="400.0" height="320.0" fill="url(#cakeS)"/><ellipse cx="500.0" cy="646.0" rx="200.0" ry="36.0" fill="url(#cakeS)"/><ellipse cx="500.0" cy="326.0" rx="200.0" ry="36.0" fill="#fffdf8"/><rect x="528.1" y="532.3" width="11.2" height="3.2" rx="1.6" fill="#f7c948" transform="rotate(86 528.1 532.3)"/><rect x="652.1" y="500.5" width="11.2" height="3.2" rx="1.6" fill="#b58be0" transform="rotate(34 652.1 500.5)"/><rect x="560.7" y="527.5" width="11.2" height="3.2" rx="1.6" fill="#b58be0" transform="rotate(58 560.7 527.5)"/><rect x="574.8" y="483.9" width="11.2" height="3.2" rx="1.6" fill="#f7c948" transform="rotate(170 574.8 483.9)"/><rect x="554.2" y="426.4" width="11.2" height="3.2" rx="1.6" fill="#f7c948" transform="rotate(93 554.2 426.4)"/><rect x="659.5" y="567.8" width="11.2" height="3.2" rx="1.6" fill="#ff9a5c" transform="rotate(122 659.5 567.8)"/><rect x="626.1" y="419.8" width="11.2" height="3.2" rx="1.6" fill="#f7c948" transform="rotate(100 626.1 419.8)"/><rect x="572.5" y="367.5" width="11.2" height="3.2" rx="1.6" fill="#f06a8a" transform="rotate(57 572.5 367.5)"/><rect x="655.1" y="648.5" width="11.2" height="3.2" rx="1.6" fill="#f06a8a" transform="rotate(135 655.1 648.5)"/><rect x="349.3" y="432.9" width="11.2" height="3.2" rx="1.6" fill="#5bb7e5" transform="rotate(92 349.3 432.9)"/><rect x="428.0" y="443.2" width="11.2" height="3.2" rx="1.6" fill="#ff9a5c" transform="rotate(55 428.0 443.2)"/><rect x="457.7" y="389.3" width="11.2" height="3.2" rx="1.6" fill="#f06a8a" transform="rotate(158 457.7 389.3)"/><rect x="445.8" y="530.8" width="11.2" height="3.2" rx="1.6" fill="#ff9a5c" transform="rotate(101 445.8 530.8)"/><rect x="349.5" y="377.7" width="11.2" height="3.2" rx="1.6" fill="#f06a8a" transform="rotate(145 349.5 377.7)"/><rect x="301.2" y="461.2" width="11.2" height="3.2" rx="1.6" fill="#f7c948" transform="rotate(37 301.2 461.2)"/><rect x="377.1" y="539.2" width="11.2" height="3.2" rx="1.6" fill="#7fd18b" transform="rotate(108 377.1 539.2)"/><rect x="615.9" y="518.7" width="11.2" height="3.2" rx="1.6" fill="#7fd18b" transform="rotate(141 615.9 518.7)"/><rect x="423.2" y="352.5" width="11.2" height="3.2" rx="1.6" fill="#7fd18b" transform="rotate(68 423.2 352.5)"/><rect x="603.2" y="445.7" width="11.2" height="3.2" rx="1.6" fill="#ff9a5c" transform="rotate(157 603.2 445.7)"/><rect x="305.9" y="503.5" width="11.2" height="3.2" rx="1.6" fill="#7fd18b" transform="rotate(130 305.9 503.5)"/><rect x="649.1" y="600.0" width="11.2" height="3.2" rx="1.6" fill="#5bb7e5" transform="rotate(164 649.1 600.0)"/><rect x="591.7" y="484.7" width="11.2" height="3.2" rx="1.6" fill="#ff9a5c" transform="rotate(16 591.7 484.7)"/><rect x="540.7" y="563.4" width="11.2" height="3.2" rx="1.6" fill="#7fd18b" transform="rotate(50 540.7 563.4)"/><rect x="678.7" y="460.0" width="11.2" height="3.2" rx="1.6" fill="#7fd18b" transform="rotate(158 678.7 460.0)"/><rect x="684.7" y="484.2" width="11.2" height="3.2" rx="1.6" fill="#f06a8a" transform="rotate(137 684.7 484.2)"/><rect x="427.0" y="636.2" width="11.2" height="3.2" rx="1.6" fill="#5bb7e5" transform="rotate(19 427.0 636.2)"/><rect x="374.1" y="557.7" width="11.2" height="3.2" rx="1.6" fill="#b58be0" transform="rotate(171 374.1 557.7)"/><rect x="663.1" y="385.2" width="11.2" height="3.2" rx="1.6" fill="#ff9a5c" transform="rotate(174 663.1 385.2)"/><rect x="632.5" y="468.9" width="11.2" height="3.2" rx="1.6" fill="#f7c948" transform="rotate(167 632.5 468.9)"/><rect x="647.6" y="570.2" width="11.2" height="3.2" rx="1.6" fill="#b58be0" transform="rotate(118 647.6 570.2)"/><rect x="313.9" y="569.0" width="11.2" height="3.2" rx="1.6" fill="#ff9a5c" transform="rotate(2 313.9 569.0)"/><rect x="492.3" y="585.0" width="11.2" height="3.2" rx="1.6" fill="#b58be0" transform="rotate(14 492.3 585.0)"/><rect x="347.0" y="605.9" width="11.2" height="3.2" rx="1.6" fill="#5bb7e5" transform="rotate(171 347.0 605.9)"/><rect x="328.6" y="626.4" width="11.2" height="3.2" rx="1.6" fill="#f06a8a" transform="rotate(103 328.6 626.4)"/><rect x="698.2" y="547.5" width="11.2" height="3.2" rx="1.6" fill="#f06a8a" transform="rotate(155 698.2 547.5)"/><rect x="362.3" y="337.4" width="11.2" height="3.2" rx="1.6" fill="#f06a8a" transform="rotate(146 362.3 337.4)"/><rect x="355.2" y="342.7" width="11.2" height="3.2" rx="1.6" fill="#f06a8a" transform="rotate(106 355.2 342.7)"/><rect x="383.9" y="508.1" width="11.2" height="3.2" rx="1.6" fill="#ff9a5c" transform="rotate(20 383.9 508.1)"/><rect x="446.6" y="585.8" width="11.2" height="3.2" rx="1.6" fill="#ff9a5c" transform="rotate(90 446.6 585.8)"/><rect x="423.7" y="339.9" width="11.2" height="3.2" rx="1.6" fill="#ff9a5c" transform="rotate(150 423.7 339.9)"/><rect x="306.5" y="332.1" width="11.2" height="3.2" rx="1.6" fill="#f7c948" transform="rotate(111 306.5 332.1)"/><rect x="430.7" y="371.0" width="11.2" height="3.2" rx="1.6" fill="#f7c948" transform="rotate(18 430.7 371.0)"/><rect x="454.7" y="570.5" width="11.2" height="3.2" rx="1.6" fill="#f7c948" transform="rotate(36 454.7 570.5)"/><rect x="332.8" y="395.0" width="11.2" height="3.2" rx="1.6" fill="#5bb7e5" transform="rotate(47 332.8 395.0)"/><rect x="369.4" y="499.5" width="11.2" height="3.2" rx="1.6" fill="#5bb7e5" transform="rotate(144 369.4 499.5)"/><rect x="517.9" y="477.2" width="11.2" height="3.2" rx="1.6" fill="#ff9a5c" transform="rotate(133 517.9 477.2)"/><rect x="302.9" y="337.5" width="11.2" height="3.2" rx="1.6" fill="#5bb7e5" transform="rotate(61 302.9 337.5)"/><rect x="444.5" y="410.8" width="11.2" height="3.2" rx="1.6" fill="#f7c948" transform="rotate(111 444.5 410.8)"/><rect x="626.2" y="488.7" width="11.2" height="3.2" rx="1.6" fill="#b58be0" transform="rotate(69 626.2 488.7)"/><rect x="412.8" y="561.9" width="11.2" height="3.2" rx="1.6" fill="#5bb7e5" transform="rotate(137 412.8 561.9)"/><rect x="414.4" y="456.0" width="11.2" height="3.2" rx="1.6" fill="#f06a8a" transform="rotate(62 414.4 456.0)"/><rect x="346.8" y="640.7" width="11.2" height="3.2" rx="1.6" fill="#ff9a5c" transform="rotate(171 346.8 640.7)"/><rect x="453.3" y="406.9" width="11.2" height="3.2" rx="1.6" fill="#7fd18b" transform="rotate(7 453.3 406.9)"/><rect x="395.0" y="584.3" width="11.2" height="3.2" rx="1.6" fill="#b58be0" transform="rotate(29 395.0 584.3)"/><rect x="666.3" y="527.2" width="11.2" height="3.2" rx="1.6" fill="#f06a8a" transform="rotate(152 666.3 527.2)"/><rect x="499.1" y="579.4" width="11.2" height="3.2" rx="1.6" fill="#7fd18b" transform="rotate(154 499.1 579.4)"/><rect x="583.3" y="420.2" width="11.2" height="3.2" rx="1.6" fill="#7fd18b" transform="rotate(163 583.3 420.2)"/><rect x="550.7" y="405.1" width="11.2" height="3.2" rx="1.6" fill="#ff9a5c" transform="rotate(127 550.7 405.1)"/><rect x="451.4" y="475.3" width="11.2" height="3.2" rx="1.6" fill="#ff9a5c" transform="rotate(72 451.4 475.3)"/><rect x="339.4" y="575.9" width="11.2" height="3.2" rx="1.6" fill="#5bb7e5" transform="rotate(50 339.4 575.9)"/><rect x="630.1" y="363.1" width="11.2" height="3.2" rx="1.6" fill="#5bb7e5" transform="rotate(69 630.1 363.1)"/><rect x="490.7" y="386.1" width="11.2" height="3.2" rx="1.6" fill="#7fd18b" transform="rotate(24 490.7 386.1)"/><rect x="394.6" y="585.1" width="11.2" height="3.2" rx="1.6" fill="#b58be0" transform="rotate(75 394.6 585.1)"/><rect x="358.8" y="623.3" width="11.2" height="3.2" rx="1.6" fill="#b58be0" transform="rotate(16 358.8 623.3)"/><rect x="649.5" y="647.7" width="11.2" height="3.2" rx="1.6" fill="#b58be0" transform="rotate(96 649.5 647.7)"/><rect x="453.1" y="517.8" width="11.2" height="3.2" rx="1.6" fill="#7fd18b" transform="rotate(89 453.1 517.8)"/><rect x="502.7" y="429.4" width="11.2" height="3.2" rx="1.6" fill="#b58be0" transform="rotate(177 502.7 429.4)"/><rect x="473.1" y="520.8" width="11.2" height="3.2" rx="1.6" fill="#ff9a5c" transform="rotate(42 473.1 520.8)"/><rect x="401.5" y="427.5" width="11.2" height="3.2" rx="1.6" fill="#7fd18b" transform="rotate(55 401.5 427.5)"/><rect x="630.8" y="627.2" width="11.2" height="3.2" rx="1.6" fill="#f7c948" transform="rotate(145 630.8 627.2)"/><rect x="377.9" y="474.1" width="11.2" height="3.2" rx="1.6" fill="#5bb7e5" transform="rotate(45 377.9 474.1)"/><rect x="473.7" y="490.4" width="11.2" height="3.2" rx="1.6" fill="#f7c948" transform="rotate(63 473.7 490.4)"/><rect x="347.7" y="339.9" width="11.2" height="3.2" rx="1.6" fill="#f7c948" transform="rotate(44 347.7 339.9)"/><rect x="590.6" y="530.9" width="11.2" height="3.2" rx="1.6" fill="#ff9a5c" transform="rotate(135 590.6 530.9)"/><rect x="688.1" y="518.8" width="11.2" height="3.2" rx="1.6" fill="#ff9a5c" transform="rotate(47 688.1 518.8)"/><rect x="311.5" y="572.8" width="11.2" height="3.2" rx="1.6" fill="#5bb7e5" transform="rotate(142 311.5 572.8)"/><rect x="660.2" y="340.0" width="11.2" height="3.2" rx="1.6" fill="#ff9a5c" transform="rotate(52 660.2 340.0)"/><rect x="629.7" y="495.8" width="11.2" height="3.2" rx="1.6" fill="#f7c948" transform="rotate(163 629.7 495.8)"/><rect x="473.2" y="493.4" width="11.2" height="3.2" rx="1.6" fill="#f7c948" transform="rotate(144 473.2 493.4)"/><rect x="440.3" y="637.6" width="11.2" height="3.2" rx="1.6" fill="#b58be0" transform="rotate(3 440.3 637.6)"/><rect x="520.0" y="566.3" width="11.2" height="3.2" rx="1.6" fill="#ff9a5c" transform="rotate(16 520.0 566.3)"/><rect x="479.6" y="427.1" width="11.2" height="3.2" rx="1.6" fill="#f7c948" transform="rotate(78 479.6 427.1)"/><rect x="433.5" y="387.4" width="11.2" height="3.2" rx="1.6" fill="#5bb7e5" transform="rotate(129 433.5 387.4)"/><rect x="352.6" y="386.6" width="11.2" height="3.2" rx="1.6" fill="#f7c948" transform="rotate(63 352.6 386.6)"/><rect x="600.0" y="421.8" width="11.2" height="3.2" rx="1.6" fill="#ff9a5c" transform="rotate(106 600.0 421.8)"/><rect x="424.7" y="519.4" width="11.2" height="3.2" rx="1.6" fill="#f06a8a" transform="rotate(75 424.7 519.4)"/><rect x="592.8" y="603.9" width="11.2" height="3.2" rx="1.6" fill="#5bb7e5" transform="rotate(156 592.8 603.9)"/><rect x="671.3" y="540.3" width="11.2" height="3.2" rx="1.6" fill="#7fd18b" transform="rotate(43 671.3 540.3)"/><rect x="686.2" y="607.7" width="11.2" height="3.2" rx="1.6" fill="#b58be0" transform="rotate(30 686.2 607.7)"/><rect x="513.0" y="394.1" width="11.2" height="3.2" rx="1.6" fill="#ff9a5c" transform="rotate(88 513.0 394.1)"/><rect x="349.4" y="526.1" width="11.2" height="3.2" rx="1.6" fill="#b58be0" transform="rotate(34 349.4 526.1)"/><rect x="434.8" y="561.4" width="11.2" height="3.2" rx="1.6" fill="#b58be0" transform="rotate(57 434.8 561.4)"/><rect x="601.8" y="441.0" width="11.2" height="3.2" rx="1.6" fill="#f7c948" transform="rotate(31 601.8 441.0)"/><rect x="566.0" y="356.5" width="11.2" height="3.2" rx="1.6" fill="#b58be0" transform="rotate(12 566.0 356.5)"/><rect x="311.4" y="384.9" width="11.2" height="3.2" rx="1.6" fill="#5bb7e5" transform="rotate(99 311.4 384.9)"/><rect x="460.0" y="531.6" width="11.2" height="3.2" rx="1.6" fill="#ff9a5c" transform="rotate(85 460.0 531.6)"/><rect x="380.4" y="335.9" width="11.2" height="3.2" rx="1.6" fill="#b58be0" transform="rotate(107 380.4 335.9)"/><rect x="522.8" y="468.0" width="11.2" height="3.2" rx="1.6" fill="#f06a8a" transform="rotate(144 522.8 468.0)"/><rect x="446.1" y="595.2" width="11.2" height="3.2" rx="1.6" fill="#f06a8a" transform="rotate(161 446.1 595.2)"/><rect x="664.1" y="551.6" width="11.2" height="3.2" rx="1.6" fill="#7fd18b" transform="rotate(131 664.1 551.6)"/><rect x="690.7" y="432.5" width="11.2" height="3.2" rx="1.6" fill="#f7c948" transform="rotate(133 690.7 432.5)"/><rect x="506.9" y="537.5" width="11.2" height="3.2" rx="1.6" fill="#5bb7e5" transform="rotate(37 506.9 537.5)"/><rect x="355.6" y="365.9" width="11.2" height="3.2" rx="1.6" fill="#b58be0" transform="rotate(166 355.6 365.9)"/><rect x="615.8" y="640.7" width="11.2" height="3.2" rx="1.6" fill="#5bb7e5" transform="rotate(8 615.8 640.7)"/><rect x="383.7" y="505.0" width="11.2" height="3.2" rx="1.6" fill="#7fd18b" transform="rotate(89 383.7 505.0)"/><rect x="575.1" y="445.1" width="11.2" height="3.2" rx="1.6" fill="#7fd18b" transform="rotate(61 575.1 445.1)"/><rect x="502.6" y="350.3" width="11.2" height="3.2" rx="1.6" fill="#f7c948" transform="rotate(28 502.6 350.3)"/><rect x="409.5" y="577.4" width="11.2" height="3.2" rx="1.6" fill="#f06a8a" transform="rotate(178 409.5 577.4)"/><rect x="560.3" y="461.5" width="11.2" height="3.2" rx="1.6" fill="#b58be0" transform="rotate(129 560.3 461.5)"/><rect x="626.8" y="508.8" width="11.2" height="3.2" rx="1.6" fill="#b58be0" transform="rotate(129 626.8 508.8)"/><rect x="312.2" y="505.4" width="11.2" height="3.2" rx="1.6" fill="#f7c948" transform="rotate(46 312.2 505.4)"/><rect x="446.0" y="613.5" width="11.2" height="3.2" rx="1.6" fill="#5bb7e5" transform="rotate(91 446.0 613.5)"/><rect x="507.9" y="451.6" width="11.2" height="3.2" rx="1.6" fill="#f06a8a" transform="rotate(4 507.9 451.6)"/><rect x="665.1" y="505.3" width="11.2" height="3.2" rx="1.6" fill="#f06a8a" transform="rotate(130 665.1 505.3)"/><rect x="641.2" y="511.8" width="11.2" height="3.2" rx="1.6" fill="#7fd18b" transform="rotate(170 641.2 511.8)"/><rect x="691.3" y="457.2" width="11.2" height="3.2" rx="1.6" fill="#7fd18b" transform="rotate(126 691.3 457.2)"/><rect x="378.8" y="642.7" width="11.2" height="3.2" rx="1.6" fill="#b58be0" transform="rotate(140 378.8 642.7)"/><rect x="589.2" y="646.1" width="11.2" height="3.2" rx="1.6" fill="#7fd18b" transform="rotate(28 589.2 646.1)"/><rect x="448.4" y="346.5" width="11.2" height="3.2" rx="1.6" fill="#ff9a5c" transform="rotate(157 448.4 346.5)"/><rect x="649.1" y="438.9" width="11.2" height="3.2" rx="1.6" fill="#7fd18b" transform="rotate(58 649.1 438.9)"/><rect x="421.0" y="429.2" width="11.2" height="3.2" rx="1.6" fill="#f7c948" transform="rotate(67 421.0 429.2)"/><rect x="382.3" y="389.3" width="11.2" height="3.2" rx="1.6" fill="#ff9a5c" transform="rotate(163 382.3 389.3)"/><rect x="537.0" y="456.7" width="11.2" height="3.2" rx="1.6" fill="#b58be0" transform="rotate(170 537.0 456.7)"/><rect x="389.5" y="549.2" width="11.2" height="3.2" rx="1.6" fill="#f06a8a" transform="rotate(136 389.5 549.2)"/><rect x="516.6" y="603.3" width="11.2" height="3.2" rx="1.6" fill="#b58be0" transform="rotate(101 516.6 603.3)"/><rect x="628.7" y="541.1" width="11.2" height="3.2" rx="1.6" fill="#f7c948" transform="rotate(157 628.7 541.1)"/><rect x="533.4" y="402.1" width="11.2" height="3.2" rx="1.6" fill="#5bb7e5" transform="rotate(175 533.4 402.1)"/><rect x="308.2" y="631.5" width="11.2" height="3.2" rx="1.6" fill="#7fd18b" transform="rotate(171 308.2 631.5)"/><rect x="623.6" y="458.9" width="11.2" height="3.2" rx="1.6" fill="#5bb7e5" transform="rotate(112 623.6 458.9)"/><rect x="656.3" y="592.2" width="11.2" height="3.2" rx="1.6" fill="#f7c948" transform="rotate(1 656.3 592.2)"/><rect x="302.9" y="472.9" width="11.2" height="3.2" rx="1.6" fill="#b58be0" transform="rotate(158 302.9 472.9)"/><rect x="634.6" y="352.1" width="11.2" height="3.2" rx="1.6" fill="#5bb7e5" transform="rotate(119 634.6 352.1)"/><rect x="370.2" y="518.3" width="11.2" height="3.2" rx="1.6" fill="#f06a8a" transform="rotate(173 370.2 518.3)"/><rect x="307.1" y="485.7" width="11.2" height="3.2" rx="1.6" fill="#f7c948" transform="rotate(126 307.1 485.7)"/><rect x="655.3" y="417.1" width="11.2" height="3.2" rx="1.6" fill="#b58be0" transform="rotate(64 655.3 417.1)"/><rect x="585.7" y="473.3" width="11.2" height="3.2" rx="1.6" fill="#ff9a5c" transform="rotate(29 585.7 473.3)"/><rect x="609.5" y="569.7" width="11.2" height="3.2" rx="1.6" fill="#f7c948" transform="rotate(127 609.5 569.7)"/><rect x="657.5" y="632.1" width="11.2" height="3.2" rx="1.6" fill="#f7c948" transform="rotate(159 657.5 632.1)"/><rect x="491.8" y="339.4" width="11.2" height="3.2" rx="1.6" fill="#b58be0" transform="rotate(21 491.8 339.4)"/><rect x="365.0" y="364.7" width="11.2" height="3.2" rx="1.6" fill="#ff9a5c" transform="rotate(145 365.0 364.7)"/><rect x="591.4" y="385.4" width="11.2" height="3.2" rx="1.6" fill="#f7c948" transform="rotate(8 591.4 385.4)"/><rect x="362.1" y="521.8" width="11.2" height="3.2" rx="1.6" fill="#ff9a5c" transform="rotate(168 362.1 521.8)"/><rect x="300.6" y="527.8" width="11.2" height="3.2" rx="1.6" fill="#5bb7e5" transform="rotate(146 300.6 527.8)"/><rect x="593.0" y="551.2" width="11.2" height="3.2" rx="1.6" fill="#7fd18b" transform="rotate(164 593.0 551.2)"/><rect x="673.7" y="384.0" width="11.2" height="3.2" rx="1.6" fill="#f06a8a" transform="rotate(53 673.7 384.0)"/><rect x="504.2" y="381.4" width="11.2" height="3.2" rx="1.6" fill="#7fd18b" transform="rotate(80 504.2 381.4)"/><rect x="465.9" y="564.9" width="11.2" height="3.2" rx="1.6" fill="#f7c948" transform="rotate(101 465.9 564.9)"/><rect x="649.0" y="639.1" width="11.2" height="3.2" rx="1.6" fill="#ff9a5c" transform="rotate(13 649.0 639.1)"/><rect x="485.0" y="515.7" width="11.2" height="3.2" rx="1.6" fill="#ff9a5c" transform="rotate(35 485.0 515.7)"/><rect x="470.3" y="420.3" width="11.2" height="3.2" rx="1.6" fill="#b58be0" transform="rotate(127 470.3 420.3)"/><rect x="453.4" y="509.8" width="11.2" height="3.2" rx="1.6" fill="#f7c948" transform="rotate(98 453.4 509.8)"/><rect x="433.5" y="644.5" width="11.2" height="3.2" rx="1.6" fill="#7fd18b" transform="rotate(65 433.5 644.5)"/><rect x="304.7" y="357.5" width="11.2" height="3.2" rx="1.6" fill="#f7c948" transform="rotate(18 304.7 357.5)"/><rect x="361.2" y="461.3" width="11.2" height="3.2" rx="1.6" fill="#b58be0" transform="rotate(165 361.2 461.3)"/><rect x="411.2" y="440.4" width="11.2" height="3.2" rx="1.6" fill="#f06a8a" transform="rotate(155 411.2 440.4)"/><rect x="674.6" y="366.7" width="11.2" height="3.2" rx="1.6" fill="#f06a8a" transform="rotate(34 674.6 366.7)"/><rect x="459.9" y="451.0" width="11.2" height="3.2" rx="1.6" fill="#7fd18b" transform="rotate(17 459.9 451.0)"/><rect x="429.1" y="429.3" width="11.2" height="3.2" rx="1.6" fill="#ff9a5c" transform="rotate(71 429.1 429.3)"/><rect x="606.2" y="334.0" width="11.2" height="3.2" rx="1.6" fill="#f7c948" transform="rotate(107 606.2 334.0)"/><rect x="646.6" y="647.4" width="11.2" height="3.2" rx="1.6" fill="#5bb7e5" transform="rotate(30 646.6 647.4)"/><rect x="471.1" y="519.1" width="11.2" height="3.2" rx="1.6" fill="#b58be0" transform="rotate(6 471.1 519.1)"/><rect x="604.1" y="530.9" width="11.2" height="3.2" rx="1.6" fill="#7fd18b" transform="rotate(132 604.1 530.9)"/><rect x="317.3" y="631.2" width="11.2" height="3.2" rx="1.6" fill="#f7c948" transform="rotate(157 317.3 631.2)"/><rect x="408.2" y="537.2" width="11.2" height="3.2" rx="1.6" fill="#5bb7e5" transform="rotate(60 408.2 537.2)"/><rect x="540.8" y="579.7" width="11.2" height="3.2" rx="1.6" fill="#7fd18b" transform="rotate(9 540.8 579.7)"/><rect x="445.0" y="489.6" width="11.2" height="3.2" rx="1.6" fill="#5bb7e5" transform="rotate(25 445.0 489.6)"/><rect x="537.4" y="596.6" width="11.2" height="3.2" rx="1.6" fill="#7fd18b" transform="rotate(129 537.4 596.6)"/><rect x="402.8" y="412.8" width="11.2" height="3.2" rx="1.6" fill="#7fd18b" transform="rotate(14 402.8 412.8)"/><rect x="670.0" y="345.9" width="11.2" height="3.2" rx="1.6" fill="#5bb7e5" transform="rotate(40 670.0 345.9)"/><rect x="405.1" y="478.9" width="11.2" height="3.2" rx="1.6" fill="#f7c948" transform="rotate(22 405.1 478.9)"/><rect x="661.7" y="639.4" width="11.2" height="3.2" rx="1.6" fill="#7fd18b" transform="rotate(22 661.7 639.4)"/><rect x="689.2" y="394.2" width="11.2" height="3.2" rx="1.6" fill="#ff9a5c" transform="rotate(135 689.2 394.2)"/><rect x="576.7" y="544.6" width="11.2" height="3.2" rx="1.6" fill="#f06a8a" transform="rotate(113 576.7 544.6)"/><rect x="618.2" y="555.2" width="11.2" height="3.2" rx="1.6" fill="#f7c948" transform="rotate(59 618.2 555.2)"/><rect x="328.6" y="454.3" width="11.2" height="3.2" rx="1.6" fill="#7fd18b" transform="rotate(129 328.6 454.3)"/><rect x="327.5" y="350.6" width="11.2" height="3.2" rx="1.6" fill="#f06a8a" transform="rotate(167 327.5 350.6)"/><rect x="523.5" y="514.2" width="11.2" height="3.2" rx="1.6" fill="#f06a8a" transform="rotate(82 523.5 514.2)"/><rect x="681.8" y="533.8" width="11.2" height="3.2" rx="1.6" fill="#ff9a5c" transform="rotate(18 681.8 533.8)"/><rect x="657.5" y="452.1" width="11.2" height="3.2" rx="1.6" fill="#f06a8a" transform="rotate(71 657.5 452.1)"/><rect x="626.7" y="466.0" width="11.2" height="3.2" rx="1.6" fill="#f06a8a" transform="rotate(29 626.7 466.0)"/><rect x="457.2" y="438.6" width="11.2" height="3.2" rx="1.6" fill="#f06a8a" transform="rotate(149 457.2 438.6)"/><rect x="415.1" y="621.6" width="11.2" height="3.2" rx="1.6" fill="#5bb7e5" transform="rotate(11 415.1 621.6)"/><rect x="524.2" y="390.0" width="11.2" height="3.2" rx="1.6" fill="#5bb7e5" transform="rotate(168 524.2 390.0)"/><rect x="572.2" y="603.0" width="11.2" height="3.2" rx="1.6" fill="#f06a8a" transform="rotate(154 572.2 603.0)"/><rect x="672.7" y="485.4" width="11.2" height="3.2" rx="1.6" fill="#f06a8a" transform="rotate(148 672.7 485.4)"/><rect x="606.6" y="562.8" width="11.2" height="3.2" rx="1.6" fill="#b58be0" transform="rotate(31 606.6 562.8)"/><rect x="460.0" y="524.0" width="11.2" height="3.2" rx="1.6" fill="#5bb7e5" transform="rotate(2 460.0 524.0)"/><rect x="361.1" y="514.4" width="11.2" height="3.2" rx="1.6" fill="#7fd18b" transform="rotate(153 361.1 514.4)"/><rect x="642.2" y="570.3" width="11.2" height="3.2" rx="1.6" fill="#f06a8a" transform="rotate(167 642.2 570.3)"/><rect x="457.1" y="373.3" width="11.2" height="3.2" rx="1.6" fill="#7fd18b" transform="rotate(173 457.1 373.3)"/><rect x="581.3" y="567.5" width="11.2" height="3.2" rx="1.6" fill="#f7c948" transform="rotate(136 581.3 567.5)"/><rect x="530.7" y="359.7" width="11.2" height="3.2" rx="1.6" fill="#f7c948" transform="rotate(59 530.7 359.7)"/><rect x="423.6" y="342.3" width="11.2" height="3.2" rx="1.6" fill="#5bb7e5" transform="rotate(134 423.6 342.3)"/><rect x="599.6" y="589.1" width="11.2" height="3.2" rx="1.6" fill="#f06a8a" transform="rotate(132 599.6 589.1)"/><rect x="630.2" y="436.4" width="11.2" height="3.2" rx="1.6" fill="#ff9a5c" transform="rotate(68 630.2 436.4)"/><rect x="467.9" y="397.5" width="11.2" height="3.2" rx="1.6" fill="#b58be0" transform="rotate(19 467.9 397.5)"/><rect x="383.4" y="612.1" width="11.2" height="3.2" rx="1.6" fill="#f7c948" transform="rotate(96 383.4 612.1)"/><rect x="514.6" y="596.5" width="11.2" height="3.2" rx="1.6" fill="#f06a8a" transform="rotate(23 514.6 596.5)"/><rect x="686.7" y="585.8" width="11.2" height="3.2" rx="1.6" fill="#ff9a5c" transform="rotate(47 686.7 585.8)"/><rect x="516.5" y="362.3" width="11.2" height="3.2" rx="1.6" fill="#ff9a5c" transform="rotate(74 516.5 362.3)"/><rect x="634.9" y="338.1" width="9.5" height="2.7" rx="1.4" fill="#f06a8a" transform="rotate(20 634.9 338.1)"/><rect x="413.1" y="325.2" width="9.5" height="2.7" rx="1.4" fill="#7fd18b" transform="rotate(113 413.1 325.2)"/><rect x="452.6" y="332.3" width="9.5" height="2.7" rx="1.4" fill="#7fd18b" transform="rotate(66 452.6 332.3)"/><rect x="658.9" y="315.6" width="9.5" height="2.7" rx="1.4" fill="#b58be0" transform="rotate(110 658.9 315.6)"/><rect x="366.8" y="325.7" width="9.5" height="2.7" rx="1.4" fill="#7fd18b" transform="rotate(50 366.8 325.7)"/><rect x="476.5" y="326.9" width="9.5" height="2.7" rx="1.4" fill="#7fd18b" transform="rotate(171 476.5 326.9)"/><rect x="404.6" y="321.8" width="9.5" height="2.7" rx="1.4" fill="#f06a8a" transform="rotate(141 404.6 321.8)"/><rect x="507.2" y="331.8" width="9.5" height="2.7" rx="1.4" fill="#ff9a5c" transform="rotate(111 507.2 331.8)"/><rect x="629.9" y="304.1" width="9.5" height="2.7" rx="1.4" fill="#b58be0" transform="rotate(166 629.9 304.1)"/><rect x="551.3" y="301.1" width="9.5" height="2.7" rx="1.4" fill="#5bb7e5" transform="rotate(30 551.3 301.1)"/><rect x="471.4" y="326.0" width="9.5" height="2.7" rx="1.4" fill="#5bb7e5" transform="rotate(31 471.4 326.0)"/><rect x="430.7" y="320.6" width="9.5" height="2.7" rx="1.4" fill="#ff9a5c" transform="rotate(78 430.7 320.6)"/><rect x="437.0" y="312.2" width="9.5" height="2.7" rx="1.4" fill="#ff9a5c" transform="rotate(12 437.0 312.2)"/><rect x="467.3" y="331.7" width="9.5" height="2.7" rx="1.4" fill="#f06a8a" transform="rotate(172 467.3 331.7)"/><rect x="444.6" y="310.0" width="9.5" height="2.7" rx="1.4" fill="#ff9a5c" transform="rotate(97 444.6 310.0)"/><rect x="456.8" y="324.1" width="9.5" height="2.7" rx="1.4" fill="#f7c948" transform="rotate(23 456.8 324.1)"/><rect x="567.9" y="310.2" width="9.5" height="2.7" rx="1.4" fill="#f06a8a" transform="rotate(27 567.9 310.2)"/><rect x="517.6" y="300.5" width="9.5" height="2.7" rx="1.4" fill="#7fd18b" transform="rotate(98 517.6 300.5)"/><rect x="481.6" y="320.5" width="9.5" height="2.7" rx="1.4" fill="#ff9a5c" transform="rotate(128 481.6 320.5)"/><rect x="574.3" y="308.3" width="9.5" height="2.7" rx="1.4" fill="#7fd18b" transform="rotate(146 574.3 308.3)"/><rect x="521.7" y="321.6" width="9.5" height="2.7" rx="1.4" fill="#5bb7e5" transform="rotate(119 521.7 321.6)"/><rect x="420.4" y="334.6" width="9.5" height="2.7" rx="1.4" fill="#5bb7e5" transform="rotate(96 420.4 334.6)"/><rect x="396.1" y="324.9" width="9.5" height="2.7" rx="1.4" fill="#b58be0" transform="rotate(27 396.1 324.9)"/><rect x="635.5" y="323.9" width="9.5" height="2.7" rx="1.4" fill="#f06a8a" transform="rotate(35 635.5 323.9)"/><rect x="464.4" y="303.1" width="9.5" height="2.7" rx="1.4" fill="#f06a8a" transform="rotate(130 464.4 303.1)"/><rect x="407.7" y="303.3" width="9.5" height="2.7" rx="1.4" fill="#ff9a5c" transform="rotate(104 407.7 303.3)"/><rect x="492.1" y="335.4" width="9.5" height="2.7" rx="1.4" fill="#ff9a5c" transform="rotate(177 492.1 335.4)"/><rect x="490.3" y="338.8" width="9.5" height="2.7" rx="1.4" fill="#b58be0" transform="rotate(60 490.3 338.8)"/><rect x="489.9" y="323.1" width="9.5" height="2.7" rx="1.4" fill="#5bb7e5" transform="rotate(147 489.9 323.1)"/><rect x="639.7" y="337.1" width="9.5" height="2.7" rx="1.4" fill="#f06a8a" transform="rotate(11 639.7 337.1)"/><rect x="665.7" y="311.9" width="9.5" height="2.7" rx="1.4" fill="#b58be0" transform="rotate(178 665.7 311.9)"/><rect x="597.5" y="322.4" width="9.5" height="2.7" rx="1.4" fill="#b58be0" transform="rotate(10 597.5 322.4)"/><rect x="433.7" y="324.8" width="9.5" height="2.7" rx="1.4" fill="#f06a8a" transform="rotate(91 433.7 324.8)"/><rect x="447.8" y="318.8" width="9.5" height="2.7" rx="1.4" fill="#f06a8a" transform="rotate(92 447.8 318.8)"/><rect x="371.2" y="303.0" width="9.5" height="2.7" rx="1.4" fill="#f06a8a" transform="rotate(28 371.2 303.0)"/><rect x="585.0" y="318.2" width="9.5" height="2.7" rx="1.4" fill="#b58be0" transform="rotate(43 585.0 318.2)"/><rect x="506.4" y="322.3" width="9.5" height="2.7" rx="1.4" fill="#f7c948" transform="rotate(47 506.4 322.3)"/><rect x="590.8" y="329.0" width="9.5" height="2.7" rx="1.4" fill="#5bb7e5" transform="rotate(96 590.8 329.0)"/><rect x="427.3" y="335.9" width="9.5" height="2.7" rx="1.4" fill="#ff9a5c" transform="rotate(56 427.3 335.9)"/><rect x="406.8" y="317.2" width="9.5" height="2.7" rx="1.4" fill="#b58be0" transform="rotate(53 406.8 317.2)"/><rect x="664.1" y="324.6" width="9.5" height="2.7" rx="1.4" fill="#b58be0" transform="rotate(177 664.1 324.6)"/><rect x="587.7" y="308.8" width="9.5" height="2.7" rx="1.4" fill="#b58be0" transform="rotate(105 587.7 308.8)"/><rect x="622.7" y="313.6" width="9.5" height="2.7" rx="1.4" fill="#ff9a5c" transform="rotate(39 622.7 313.6)"/><rect x="406.4" y="313.7" width="9.5" height="2.7" rx="1.4" fill="#f7c948" transform="rotate(137 406.4 313.7)"/><rect x="506.3" y="317.4" width="9.5" height="2.7" rx="1.4" fill="#f06a8a" transform="rotate(111 506.3 317.4)"/><rect x="605.5" y="326.2" width="9.5" height="2.7" rx="1.4" fill="#f7c948" transform="rotate(24 605.5 326.2)"/><rect x="341.9" y="307.3" width="9.5" height="2.7" rx="1.4" fill="#b58be0" transform="rotate(148 341.9 307.3)"/><rect x="543.6" y="302.3" width="9.5" height="2.7" rx="1.4" fill="#b58be0" transform="rotate(29 543.6 302.3)"/><rect x="417.7" y="307.8" width="9.5" height="2.7" rx="1.4" fill="#f06a8a" transform="rotate(88 417.7 307.8)"/><rect x="636.2" y="315.0" width="9.5" height="2.7" rx="1.4" fill="#f06a8a" transform="rotate(176 636.2 315.0)"/><rect x="338.2" y="310.0" width="9.5" height="2.7" rx="1.4" fill="#f7c948" transform="rotate(170 338.2 310.0)"/><rect x="541.7" y="306.5" width="9.5" height="2.7" rx="1.4" fill="#f06a8a" transform="rotate(141 541.7 306.5)"/><rect x="391.3" y="320.7" width="9.5" height="2.7" rx="1.4" fill="#ff9a5c" transform="rotate(82 391.3 320.7)"/><rect x="502.2" y="304.8" width="9.5" height="2.7" rx="1.4" fill="#f06a8a" transform="rotate(66 502.2 304.8)"/><rect x="443.8" y="303.6" width="9.5" height="2.7" rx="1.4" fill="#7fd18b" transform="rotate(34 443.8 303.6)"/><rect x="529.7" y="327.9" width="9.5" height="2.7" rx="1.4" fill="#b58be0" transform="rotate(126 529.7 327.9)"/><rect x="434.5" y="303.0" width="9.5" height="2.7" rx="1.4" fill="#5bb7e5" transform="rotate(38 434.5 303.0)"/><rect x="570.9" y="330.2" width="9.5" height="2.7" rx="1.4" fill="#7fd18b" transform="rotate(93 570.9 330.2)"/><rect x="371.5" y="303.1" width="9.5" height="2.7" rx="1.4" fill="#5bb7e5" transform="rotate(38 371.5 303.1)"/><rect x="401.5" y="327.7" width="9.5" height="2.7" rx="1.4" fill="#5bb7e5" transform="rotate(169 401.5 327.7)"/><rect x="496.0" y="260.0" width="8" height="70" rx="3" fill="#f4a6b8"/><ellipse cx="500.0" cy="246.0" rx="10" ry="16" fill="#ffd27a" opacity=".45" filter="url(#soft)"/><path d="M500.0 234.0 q7 12 0 20 q-7 -8 0 -20z" fill="#ffb347"/></g></svg>